<svg id="Calque_1" data-name="Calque 1" xmlns="http://www.w3.org/2000/svg" xmlns:xlink="http://www.w3.org/1999/xlink" viewBox="0 0 388.76 449.87"><defs><style>.cls-1{fill:#2a232b;}.cls-2,.cls-8{fill:#f0c7b1;}.cls-3{fill:#ffe4d6;}.cls-4{fill:#e1ac8f;}.cls-5{fill:none;}.cls-5,.cls-8{stroke:#c27b55;stroke-width:1.5px;}.cls-6{fill:url(#Dégradé_sans_nom);}.cls-7{fill:#2d3436;}.cls-9{fill:#e8b9a0;}.cls-10{fill:url(#Dégradé_sans_nom_2);}.cls-11{fill:#c27b55;}.cls-12{fill:url(#Dégradé_sans_nom_3);}.cls-13{fill:#4d3623;}.cls-14,.cls-24{opacity:0.7;}.cls-14,.cls-15,.cls-16,.cls-17,.cls-18,.cls-19,.cls-24,.cls-25,.cls-26,.cls-27,.cls-28,.cls-33,.cls-35{isolation:isolate;}.cls-14{fill:url(#Dégradé_sans_nom_4);}.cls-15,.cls-25{opacity:0.4;}.cls-15{fill:url(#Dégradé_sans_nom_5);}.cls-16{opacity:0.9;}.cls-17,.cls-18,.cls-26,.cls-27{opacity:0.5;}.cls-17{fill:url(#Dégradé_sans_nom_6);}.cls-18{fill:url(#Dégradé_sans_nom_7);}.cls-19,.cls-28{opacity:0.75;}.cls-19{fill:url(#Dégradé_sans_nom_8);}.cls-20{fill:url(#Dégradé_sans_nom_9);}.cls-21{fill:url(#Dégradé_sans_nom_10);}.cls-22{fill:#2a150e;}.cls-23{fill:url(#Dégradé_sans_nom_11);}.cls-24{fill:url(#Dégradé_sans_nom_12);}.cls-25{fill:url(#Dégradé_sans_nom_13);}.cls-26{fill:url(#Dégradé_sans_nom_14);}.cls-27{fill:url(#Dégradé_sans_nom_15);}.cls-28{fill:url(#Dégradé_sans_nom_16);}.cls-29{fill:url(#Dégradé_sans_nom_17);}.cls-30{fill:url(#Dégradé_sans_nom_18);}.cls-31{fill:url(#Dégradé_sans_nom_19);}.cls-32{fill:url(#Dégradé_sans_nom_20);}.cls-33{fill:#fff5ef;}.cls-33,.cls-35{opacity:0.2;}.cls-34{fill:#3a353a;}.cls-35{fill:#fff;}</style><linearGradient id="Dégradé_sans_nom" x1="-366.81" y1="226.22" x2="-366.81" y2="189.25" gradientTransform="translate(903.49 -55.25) scale(1.81)" gradientUnits="userSpaceOnUse"><stop offset="0" stop-color="#e1ac8f" stop-opacity="0.8"/><stop offset="0.7" stop-color="#c27b55"/></linearGradient><linearGradient id="Dégradé_sans_nom_2" x1="-366.44" y1="196.88" x2="-366.44" y2="194.31" gradientTransform="translate(903.49 -55.25) scale(1.81)" gradientUnits="userSpaceOnUse"><stop offset="0.1" stop-color="#e8b9a0"/><stop offset="1" stop-color="#e1ac8f"/></linearGradient><radialGradient id="Dégradé_sans_nom_3" cx="-1295.16" cy="155.85" r="13.25" gradientTransform="matrix(-1.67, 0.07, 0.1, 1.43, -1988.52, 57.13)" gradientUnits="userSpaceOnUse"><stop offset="0" stop-color="#fff"/><stop offset="0.54" stop-color="#fdfefe"/><stop offset="0.74" stop-color="#f6f8f9"/><stop offset="0.88" stop-color="#eaeff2"/><stop offset="0.99" stop-color="#d9e3e8"/><stop offset="1" stop-color="#d8e2e7"/></radialGradient><radialGradient id="Dégradé_sans_nom_4" cx="424.42" cy="308.61" r="12.6" gradientTransform="matrix(0.72, 0, 0, -0.73, -109.45, 420.07)" gradientUnits="userSpaceOnUse"><stop offset="0" stop-color="#fff"/><stop offset="1" stop-color="#fff" stop-opacity="0"/></radialGradient><radialGradient id="Dégradé_sans_nom_5" cx="424.78" cy="308.68" r="12.59" xlink:href="#Dégradé_sans_nom_4"/><linearGradient id="Dégradé_sans_nom_6" x1="-334.98" y1="142.54" x2="-334.19" y2="141.59" gradientTransform="translate(793.97 -55.25) scale(1.81)" xlink:href="#Dégradé_sans_nom_4"/><linearGradient id="Dégradé_sans_nom_7" x1="-330.48" y1="136.51" x2="-331.12" y2="137.27" gradientTransform="translate(793.97 -55.25) scale(1.81)" xlink:href="#Dégradé_sans_nom_4"/><linearGradient id="Dégradé_sans_nom_8" x1="-328.08" y1="134.01" x2="-329.55" y2="135.76" gradientTransform="translate(793.97 -55.25) scale(1.81)" xlink:href="#Dégradé_sans_nom_4"/><radialGradient id="Dégradé_sans_nom_9" cx="431.23" cy="313.48" fx="456.29424619606857" r="31.78" gradientTransform="matrix(0.72, 0, 0, -0.73, -109.63, 420.07)" gradientUnits="userSpaceOnUse"><stop offset="0" stop-color="#e1ac8f"/><stop offset="0.7" stop-color="#e1ac8f" stop-opacity="0.3"/><stop offset="1" stop-color="#f0c7b1" stop-opacity="0"/></radialGradient><radialGradient id="Dégradé_sans_nom_10" cx="-137.16" cy="259.21" r="26.24" gradientTransform="matrix(1.09, -0.09, 0.12, 0.95, 309.14, -46.97)" gradientUnits="userSpaceOnUse"><stop offset="0.95" stop-opacity="0"/><stop offset="1" stop-opacity="0.2"/></radialGradient><radialGradient id="Dégradé_sans_nom_11" cx="-310.95" cy="110.64" r="13.25" gradientTransform="matrix(1.67, 0.07, -0.1, 1.43, 818.61, 57.13)" xlink:href="#Dégradé_sans_nom_3"/><radialGradient id="Dégradé_sans_nom_12" cx="553.67" cy="308.61" r="12.6" gradientTransform="matrix(0.72, 0, 0, -0.73, -109.81, 420.07)" xlink:href="#Dégradé_sans_nom_4"/><radialGradient id="Dégradé_sans_nom_13" cx="554.03" cy="308.68" r="12.59" gradientTransform="matrix(0.72, 0, 0, -0.73, -109.81, 420.07)" xlink:href="#Dégradé_sans_nom_4"/><linearGradient id="Dégradé_sans_nom_14" x1="-344.05" y1="142.54" x2="-343.25" y2="141.58" gradientTransform="translate(902.51 -55.25) scale(1.81)" xlink:href="#Dégradé_sans_nom_4"/><linearGradient id="Dégradé_sans_nom_15" x1="-339.52" y1="136.52" x2="-340.16" y2="137.28" gradientTransform="translate(902.51 -55.25) scale(1.81)" xlink:href="#Dégradé_sans_nom_4"/><linearGradient id="Dégradé_sans_nom_16" x1="-337.12" y1="134.01" x2="-338.59" y2="135.77" gradientTransform="translate(902.51 -55.25) scale(1.81)" xlink:href="#Dégradé_sans_nom_4"/><radialGradient id="Dégradé_sans_nom_17" cx="546.98" cy="313.11" fx="572.0260721321207" r="31.77" xlink:href="#Dégradé_sans_nom_9"/><radialGradient id="Dégradé_sans_nom_18" cx="-1631.58" cy="113.53" r="26.24" gradientTransform="matrix(-1.09, -0.09, -0.12, 0.95, -1479.05, -46.96)" xlink:href="#Dégradé_sans_nom_10"/><radialGradient id="Dégradé_sans_nom_19" cx="-297.4" cy="158.13" r="40.98" gradientTransform="translate(693.45 3.7) scale(1.52 1.55)" gradientUnits="userSpaceOnUse"><stop offset="0" stop-color="#ffe4d6" stop-opacity="0.5"/><stop offset="0.9" stop-color="#f0c7b1" stop-opacity="0"/></radialGradient><radialGradient id="Dégradé_sans_nom_20" cx="-297.43" cy="87.53" r="37" xlink:href="#Dégradé_sans_nom_19"/></defs><title>armando</title><g id="svga-group-wrapper"><g id="svga-group-humanwrap-move"><g id="svga-group-humanwrap"><g id="svga-group-hair-back-move"><g id="svga-group-hair-back"><path id="SvgjsPath3248" class="cls-1" d="M241.83,224.54H240v-1.79h1.79Z" transform="translate(-46.24 -24.84)"/></g></g><g id="svga-group-humanbody-single"><path id="SvgjsPath2914" class="cls-2" d="M411.74,405.93c-3.91-8.67-14.7-21.51-26.6-25.08-14.79-4.42-48-9.69-60.35-12.66-9.86-2.38-29.84-20.66-36.81-26.78a7.65,7.65,0,0,1-2.29-5c-.26-19.89,7.48-72.59,7.48-72.59H188.79s7.73,52.7,7.48,72.59a7.43,7.43,0,0,1-2.3,5c-7,6.12-26.94,24.4-36.8,26.78-12.33,3-45.65,8.41-60.35,12.83-11.9,3.57-22.7,16.24-26.61,24.91C63.58,420.55,62,447.07,62,469.85H420C420,447.07,418.37,420.55,411.74,405.93Z" transform="translate(-46.24 -24.84)"/><path id="SvgjsPath2915" class="cls-3" d="M346.8,377.2c43.61,6.46,61.88,15.89,67.66,92.65h5.44c0-22.87-1.53-49.3-8.24-63.92-3.91-8.67-14.71-21.51-26.61-25.08-14.79-4.42-48-9.69-60.35-12.66-9.86-2.38-32.64-22-38.76-29.84,6,8.59,22.87,28.48,37.66,33.75C330.82,374.56,336.69,375.67,346.8,377.2Zm-188.61-5.1c14.79-5.19,31.7-25.16,37.65-33.75-6.12,7.82-28.81,27.54-38.76,29.84-12.32,3-45.64,8.41-60.35,12.83-11.9,3.57-22.69,16.24-26.6,24.91-6.63,14.62-8.25,41.14-8.25,63.92h5.44C73,393.6,91.46,383.66,135,377.2,145.18,375.67,151.13,374.56,158.19,372.1Z" transform="translate(-46.24 -24.84)"/><path id="SvgjsPath2916" class="cls-4" d="M252.45,399.55l-.51.51C252.11,399.89,252.37,399.72,252.45,399.55Z" transform="translate(-46.24 -24.84)"/><path id="SvgjsPath2917" class="cls-5" d="M411.74,405.93c-3.91-8.67-14.7-21.51-26.6-25.08-14.79-4.42-48-9.69-60.35-12.66-9.86-2.38-29.84-20.66-36.81-26.78a7.65,7.65,0,0,1-2.29-5c-.26-19.89,7.48-72.59,7.48-72.59H188.79s7.73,52.7,7.48,72.59a7.43,7.43,0,0,1-2.3,5c-7,6.12-26.94,24.4-36.8,26.78-12.33,3-45.65,8.41-60.35,12.83-11.9,3.57-22.7,16.24-26.61,24.91C63.58,420.55,62,447.07,62,469.85H420C420,447.07,418.37,420.55,411.74,405.93Z" transform="translate(-46.24 -24.84)"/></g><g id="svga-group-chinshadow-single"><path id="SvgjsPath3071" class="cls-6" d="M284.41,337.33a4,4,0,0,1-.08-.93c-.17-13.52,3.23-41.48,5.52-58.57-28.13-3.65-69.7-3.57-97.83,0,2.29,17.09,5.69,45.14,5.52,58.57a2,2,0,0,1-.08.68c6.88,6.54,13.68,11.9,19.8,14.87,9.52,4.68,37.66,4.42,47.26,0C270.73,349.15,277.53,343.88,284.41,337.33Z" transform="translate(-46.24 -24.84)"/></g><g id="svga-group-clothes-single"><path id="SvgjsPath3268" class="cls-7" d="M242.23,474.71c-65.28,0-130.62-2.91-194.2-4.27.25-37.14,13.77-81.09,51.34-93.92,8.84-3.4,29-5.78,43.69-7.48l1.27-.17.09-.68c0-.17.34-.43.51-.51a70.71,70.71,0,0,0,7.31-1.19l1.27-.26h.34a1.82,1.82,0,0,1,1.28.6c20.4,22.95,45.39,35.1,67.4,45.81,6,2.89,11.73,5.7,17.09,8.59.93.51,1.78.17,2.63.68s2,1.95,2.81,2.46l.42.26.43-.26c26.77-17.25,57-37.74,77.77-58.73a1.41,1.41,0,0,1,1-.43H325c1.62.34,3.15.68,4.76.94a59.8,59.8,0,0,1,6.12,1.36.58.58,0,0,1,.26.34l.17.59.59.09c3.66.51,7.48.85,11.39,1.27,17.34,1.79,37,3.74,52.7,14.62,21.59,14.54,31.45,53.72,33.66,85.94-1.61,0-4.76.08-9.26.17-24.82.59-91.06,4.18-183.2,4.18Z" transform="translate(-46.24 -24.84)"/><path id="SvgjsPath3269" class="cls-7" d="M434.78,470.1c-.77,0-2.72-.85-4.08-.85-5.44-30.77-11.31-58-32-79.3-18.87-16.07-51.77-10.88-76.16-20.06-23.12,26.69-52.28,42.41-78,53.46,25.5-16.49,64.68-42.58,78.2-59,10.37,2.47,60.09,6.8,77.35,18.79C421.69,397.77,432.57,437.89,434.78,470.1ZM154.19,365.64c0-.09-47.26,6.37-55.76,9.6-37.57,12.92-50.83,57.12-51.08,94.27.51,0,.17.42.68.42,1.95-27.88,11-52.27,29.32-72.42,18.45-20.57,52.28-19.12,78-24.65,27.37,28,63.24,42.25,89.25,50.58C204.94,403,177.65,392,154.19,365.64Z" transform="translate(-46.24 -24.84)"/><path id="SvgjsPath3270" class="cls-7" d="M400.69,382.47C381.4,369,356.75,369,336.26,366.4a1.33,1.33,0,0,0-.85-.93c-3.82-1-7.31-1.45-11-2.3a2.62,2.62,0,0,0-2.21.6c-21.51,21.67-53,42.67-77.61,58.56-1.7-.85-3.48-2-5.44-3.06C213.52,405.59,180.71,394,155,365a2.66,2.66,0,0,0-2.47-.85c-2.21.43-4.76.94-8.58,1.45a1.91,1.91,0,0,0-1.28,1.19c-14.62,1.7-35.44,4.16-44.45,7.56-37.32,12.75-51.94,57.42-51.94,96.95C262.82,475.84,426,470,434.78,470,433,442.14,424.41,398.45,400.69,382.47ZM322.58,366a106.92,106.92,0,0,0,10.54,2.89c-3.74,3.23-1.87.68-14,12.15-24.48,22.78-65.28,50.92-71.82,56.53,0,0-7.65-4.76-10-5.7C252.88,417,292.15,401.17,322.58,366Zm-168.13,1c16.91,25.07,55.5,41.48,83.81,54.31,1.7.77,3.31,1.53,4.84,2.13-1.27.85-7.22,6-8.33,7.05-56.86-25.41-73.61-40.46-90.1-61.28C145.18,369,153.94,367.08,154.45,367ZM47.35,469.51c2.55-23.63,6.63-44.88,21.42-66.73,16.83-25.33,39.44-28.39,74.8-33.4,21.84,27.2,28.22,31.45,49,42.33,30.77,16.23,41.31,20.23,54.82,27.2,12.67-9.69,50.07-31.88,79.31-62.22,4.67-4.85,4.16-4.25,7.65-7.57C389.64,378.39,417,370.86,435,471.59,302.49,469,178.33,466.79,47.35,469.51Z" transform="translate(-46.24 -24.84)"/></g><g id="svga-group-head"><g id="svga-group-ears-left-move"><g id="svga-group-ears-left"><path id="SvgjsPath2927" class="cls-8" d="M143.65,195c-2.63-4.5-11.3-16.83-17.93-15-5.36,1.44-5.36,9.09-5.78,13.6-.6,6.63-.85,18.27.93,23,1.7,4.5,7.06,13.26,10.46,16.57,4.08,4.08,10.71,17.09,11.47,18.45,1.28,2.12,3.83,5.18,7.74,4.93,5.52-.34,10.28-5.61,10.71-8.16C163.63,234.48,150.62,206.77,143.65,195Z" transform="translate(-46.24 -24.84)"/></g></g><g id="svga-group-ears-right-move"><g id="svga-group-ears-right"><path id="SvgjsPath2929" class="cls-8" d="M337.71,195c2.63-4.5,11.3-16.83,17.93-15,5.36,1.44,5.36,9.09,5.78,13.6.6,6.63.85,18.27-.93,23-1.7,4.5-7.06,13.26-10.46,16.57-4.08,4.08-10.71,17.09-11.47,18.45-1.28,2.12-3.83,5.18-7.74,4.93-5.52-.34-10.28-5.61-10.71-8.16C317.82,234.48,330.82,206.77,337.71,195Z" transform="translate(-46.24 -24.84)"/></g></g><g id="svga-group-faceshape-wrap"><g id="svga-group-faceshape-single"><path id="SvgjsPath3068" class="cls-2" d="M319.69,273c-8.93,18.7-35.87,51.93-55.17,60.77-9.6,4.42-37.74,4.59-47.26,0-19-9.26-46.15-42.16-55.16-60.77-10-20.74-26.61-88.74-26.61-88.83a117,117,0,0,1-3.57-28.56C131.84,93.47,180.54,43.06,240.72,43S349.78,93.13,349.86,155.26a117,117,0,0,1-3.48,28.56C346.38,183.91,329.72,252.08,319.69,273Z" transform="translate(-46.24 -24.84)"/><path id="SvgjsPath3069" class="cls-9" d="M259.08,44.59c48.28,11.56,84.32,56.27,84.24,109.65a117,117,0,0,1-3.57,28.56c0,.09-15.39,68.09-25.33,88.83-8.67,18.27-35.28,50.15-53.81,59.41-3.91,2-15.55,2.81-19.72,2.81s-15.81-.94-19.72-2.81c-18.53-9.26-45.13-41.14-53.8-59.41-9.86-20.74-25.25-88.74-25.33-88.83a116.56,116.56,0,0,1-3.57-28.56c-.09-53.38,35.87-98.09,84.23-109.65-51.59,8.93-90.86,55.25-90.78,111.1a117.11,117.11,0,0,0,3.57,28.56c0,.08,16.49,68,26.61,88.82,9,18.62,36.21,51.34,55.16,60.78,4.76,2.38,16.66,3.4,23.21,3.4s19.29-1,24-3.4c19-9.44,46.07-42.16,55.17-60.78,10.11-20.74,26.6-88.74,26.6-88.82a116.62,116.62,0,0,0,3.57-28.56C350,99.84,310.68,53.52,259.08,44.59Z" transform="translate(-46.24 -24.84)"/><path id="SvgjsPath3070" class="cls-5" d="M319.69,273c-8.93,18.7-35.87,51.93-55.17,60.77-9.6,4.42-37.74,4.59-47.26,0-19-9.26-46.15-42.16-55.16-60.77-10-20.74-26.61-88.74-26.61-88.83a117,117,0,0,1-3.57-28.56C131.84,93.47,180.54,43.06,240.72,43S349.78,93.13,349.86,155.26a118.49,118.49,0,0,1-3.65,29.24c-3.74,14.88-7.91,30.69-9.27,35.36C329.8,245.87,326.32,259.3,319.69,273Z" transform="translate(-46.24 -24.84)"/></g></g><g id="svga-group-mouth-single-move"><g id="svga-group-mouth-single"><path id="SvgjsPath3035" class="cls-10" d="M234.18,295.34l14.87-.34C247.35,303.08,235.37,302,234.18,295.34Z" transform="translate(-46.24 -24.84)"/><path id="bouche" class="cls-11" d="M235,295.85c-.68-.08-.6-1,.17-1,.08,0,7.73,1,14.11-.42.68-.17.93.85.25.93A45.25,45.25,0,0,1,235,295.85Zm6.71-6.54c-2.72,0-7,.42-9.6,0-3-.51-7.14-1.19-10.12-.94s-8.33-1.36-10.2-2.55c-1-.68-5.78-3-4.67-3.4s6.71,1.45,7.82,1.7c5.1.94,10.71.68,15.21.6,6.89-.17,13,1.87,21.59.17,9.27-1.87,8,.34,14.62-1.7,1.87-.85,5.27-1.28,6.29-.77s4.68,1.11,3.49,1.62c-6.12,2.72-9.95,3-16.66,4.16C257,288.54,244.46,289.31,241.74,289.31Z" transform="translate(-46.24 -24.84)"/></g></g><g id="svga-group-eyes-left-move"><g id="svga-group-eyes-left"><g id="svga-group-eyesback-left"><path id="SvgjsPath3129" class="cls-12" d="M199.33,184.16c8.24,1.28,14.19,6.38,19.29,14.54h0c0,.08,0,.08.09.17.42,1.87-1.45,3.31-3.83,4.42-8.5,1.1-16.74,2.72-25.41,1.61-17.34-2.29-17.68-10-18.45-12.07a17,17,0,0,1-.59-4.5,29.54,29.54,0,0,1,10.45-3.66A61.22,61.22,0,0,1,199.33,184.16Z" transform="translate(-46.24 -24.84)"/></g><g id="svga-group-eyesiriswrapper-left"><g id="svga-group-eyesiriscontrol-left"><g id="svga-group-eyesiris-left"><path id="SvgjsPath3187" class="cls-13" d="M205.57,194.45a10.71,10.71,0,1,1-21.42,0h0a10.89,10.89,0,0,1,10.71-11,10.78,10.78,0,0,1,10.71,11Z" transform="translate(-46.24 -24.84)"/><path id="SvgjsPath3188" class="cls-14" d="M193.67,183.57h-.08c.08.25.08.51.17.76A2.2,2.2,0,0,1,193.67,183.57Zm0,.76c.09,3.57.34,6.8.94,8C195,191.05,194.35,187.82,193.67,184.33Zm.94,8c-.09.34-.17.51-.34.6a.76.76,0,0,1-.68-.17c.08.34.08.51-.09.68s-.34.17-.68.17c.17.25.34.42.26.68a.88.88,0,0,1-.51.42c.25.09.51.26.51.43s-.09.42-.26.68c.34,0,.51,0,.68.17a.9.9,0,0,1,.09.68.73.73,0,0,1,.68-.17c.17.08.25.25.34.59a1.53,1.53,0,0,1,.51-.51.74.74,0,0,1,.59.34.84.84,0,0,1,.26-.68,1,1,0,0,1,.68,0,.7.7,0,0,1-.09-.68c.09-.17.34-.25.6-.34-.26-.17-.43-.34-.43-.59s.17-.34.43-.6a.63.63,0,0,1-.6-.34,1,1,0,0,1,.09-.68c-.26.09-.51.17-.68,0s-.26-.34-.26-.68a.72.72,0,0,1-.59.34C194.86,192.75,194.78,192.58,194.61,192.32Zm1.1.09c.85-.94,1.87-4,2.81-7.48C197,188.16,195.71,191.13,195.71,192.41Zm2.81-7.48c.08-.26.25-.43.34-.68a.09.09,0,0,1-.09-.09A2.57,2.57,0,0,0,198.52,184.93Zm-2,8.16c1.19-.43,3.49-2.72,5.87-5.27C199.62,189.94,197.16,191.9,196.56,193.09Zm5.95-5.36c.17-.17.34-.25.51-.42l-.08-.09C202.77,187.39,202.68,187.56,202.51,187.73Zm-5.44,6.38c1.28.17,4.34-.77,7.65-1.87C201.24,192.75,198.18,193.34,197.07,194.11Zm7.65-2c.17,0,.43-.08.6-.08V192C205.15,192.07,204.89,192.07,204.72,192.15Zm-7.65,3.06c1,.77,4.17,1.36,7.65,2C201.41,196,198.35,195,197.07,195.21Zm7.65,2c.17.08.34.08.51.17v-.09A1.14,1.14,0,0,0,204.72,197.17Zm-8.16-1c.6,1.19,3.06,3.14,5.87,5.35C200.05,199,197.75,196.66,196.56,196.15Zm5.87,5.35.34.34.08-.08C202.68,201.67,202.6,201.59,202.43,201.5Zm-6.72-4.67c0,1.27,1.28,4.25,2.81,7.48C197.5,200.82,196.56,197.76,195.71,196.83Zm2.72,7.48c0,.17.09.25.09.42h.08C198.6,204.56,198.52,204.48,198.43,204.31Zm-3.82-7.4c-.6,1.19-.85,4.34-.94,8C194.35,201.42,194.86,198.19,194.61,196.91Zm-1,8c0,.17-.09.26-.09.43h.09Zm0-8.33c-1.11.77-2.72,3.49-4.51,6.63C191.29,200.4,193.25,197.85,193.59,196.57Zm-4.51,6.55c-.08.08-.17.25-.25.34a.08.08,0,0,1,.08.08C188.91,203.37,189,203.29,189.08,203.12Zm3.74-7.4c-1.27.17-4,1.79-7,3.74C189.08,198,192,196.66,192.82,195.72Zm-7,3.66a1.28,1.28,0,0,1-.51.17v.08A.6.6,0,0,0,185.85,199.38Zm6.72-4.76c-1.19-.51-4.34-.34-7.91,0C188.23,194.87,191.38,195,192.57,194.62Zm-7.82,0a1.39,1.39,0,0,1-.6-.09v.09Zm8.07-1.11c-.85-1-3.74-2.29-7-3.74C188.83,191.73,191.55,193.34,192.82,193.51Zm-7-3.74a4.91,4.91,0,0,0-.59-.34.09.09,0,0,1-.09.09A2.91,2.91,0,0,1,185.85,189.77Zm7.74,2.89c-.34-1.27-2.21-3.82-4.42-6.63C190.87,189.18,192.48,192,193.59,192.66Zm-4.51-6.54a7.14,7.14,0,0,1-.34-.68l-.08.08A1.45,1.45,0,0,1,189.08,186.12Z" transform="translate(-46.24 -24.84)"/><path id="SvgjsPath3192" class="cls-15" d="M196.48,183.57h-.09a2.46,2.46,0,0,1-.08.76A2.32,2.32,0,0,1,196.48,183.57Zm-.17.76c-.77,3.49-1.45,6.63-1.11,7.91C195.8,191.13,196.05,187.9,196.31,184.33Zm-1.19,8c-.17.26-.34.43-.51.43a.76.76,0,0,1-.6-.34.83.83,0,0,1-.25.68,1,1,0,0,1-.68,0,.67.67,0,0,1,.08.68.65.65,0,0,1-.59.25c.25.17.42.34.42.6s-.17.34-.42.51c.34.08.51.17.59.34s0,.42-.08.68a.88.88,0,0,1,.68,0c.17.08.25.34.17.68a.72.72,0,0,1,.59-.34q.25,0,.51.51c.09-.34.17-.51.43-.6a.77.77,0,0,1,.68.17c-.09-.34-.09-.51.08-.68s.34-.17.68-.17c-.17-.25-.34-.42-.25-.68a.82.82,0,0,1,.51-.42c-.26-.09-.51-.26-.51-.43a1.36,1.36,0,0,1,.25-.68c-.34,0-.51,0-.68-.17a.9.9,0,0,1-.08-.68c-.26.17-.51.26-.68.17S195.2,192.58,195.12,192.32Zm1,.43c1.1-.68,2.8-3.4,4.59-6.46C198.43,188.92,196.48,191.47,196.14,192.75Zm4.59-6.55a3.87,3.87,0,0,0,.51-.59l-.09-.09A4.49,4.49,0,0,1,200.73,186.2Zm-3.83,7.4c1.28-.17,4-1.7,7.06-3.57C200.64,191.3,197.75,192.58,196.9,193.6Zm7-3.57c.17-.09.43-.17.6-.26a.08.08,0,0,0-.09-.08A4.72,4.72,0,0,1,203.87,190Zm-6.8,4.67c1.19.51,4.34.43,7.91.17C201.49,194.45,198.35,194.19,197.07,194.7Zm7.91.17c.17,0,.42.09.59.09v-.09C205.4,194.79,205.15,194.87,205,194.87Zm-8.16.85c.85,1,3.65,2.38,6.88,3.91C200.73,197.59,198.09,195.89,196.82,195.72Zm6.88,3.91a.91.91,0,0,1,.43.34.08.08,0,0,1,.08-.08Zm-7.65-3.06c.26,1.28,2.13,3.91,4.34,6.72C198.69,200.14,197.07,197.34,196.05,196.57Zm4.34,6.72c.08.17.17.25.25.42,0,0,.09,0,.09-.08A1.36,1.36,0,0,1,200.39,203.29ZM195,196.91c-.34,1.28.17,4.42.77,8C195.71,201.33,195.63,198.1,195,196.91Zm.77,8v.43h.08A4.28,4.28,0,0,1,195.8,204.9Zm-1.87-8.16c-.85.94-1.87,4-3,7.48C192.57,201,193.93,198.1,193.93,196.74Zm-3,7.48c-.08.09-.08.26-.17.34h.09C190.87,204.48,191,204.31,191,204.22Zm2.13-8.07c-1.19.42-3.49,2.63-6,5.18C189.93,199.21,192.4,197.25,193.08,196.15Zm-6,5.18c-.08.09-.25.17-.34.26l.09.08A1.25,1.25,0,0,1,187,201.33Zm5.53-6.2c-1.28-.17-4.34.68-7.65,1.7C188.4,196.4,191.46,195.81,192.57,195.13Zm-7.65,1.7c-.17,0-.34.08-.51.08V197A1.28,1.28,0,0,0,184.92,196.83Zm7.65-2.81c-1-.76-4.17-1.44-7.57-2.12C188.32,193.09,191.29,194.11,192.57,194ZM185,191.9a1.14,1.14,0,0,0-.51-.17v.08C184.66,191.81,184.83,191.9,185,191.9Zm8.16,1.1c-.59-1.19-3-3.23-5.78-5.44C189.76,190.2,192,192.49,193.16,193Zm-5.78-5.44a2.1,2.1,0,0,1-.42-.51l-.09.09C187,187.31,187.21,187.39,187.38,187.56Zm6.63,4.85c0-1.28-1.19-4.25-2.63-7.57C192.31,188.33,193.25,191.39,194,192.41Zm-2.55-7.57a5.6,5.6,0,0,0-.17-.68h-.08A1.1,1.1,0,0,0,191.46,184.84Z" transform="translate(-46.24 -24.84)"/><path id="SvgjsPath3196" class="cls-13" d="M199,194.45a4.28,4.28,0,0,1-4.25,4.33,4.33,4.33,0,0,1-4.25-4.33,4.25,4.25,0,1,1,8.5,0Z" transform="translate(-46.24 -24.84)"/><path id="SvgjsPath3197" class="cls-16" d="M199,194.45a4.28,4.28,0,0,1-4.25,4.33,4.33,4.33,0,0,1-4.25-4.33,4.25,4.25,0,1,1,8.5,0Z" transform="translate(-46.24 -24.84)"/><path id="SvgjsPath3198" class="cls-17" d="M189,199.46a1.79,1.79,0,0,1,2.46.51,1.78,1.78,0,0,1-.51,2.47,1.73,1.73,0,0,1-2.46-.51,1.78,1.78,0,0,1,.51-2.47Z" transform="translate(-46.24 -24.84)"/><path id="SvgjsPath3202" class="cls-18" d="M198.18,193.85c-.43.68-1.7.6-2.89-.17s-1.7-2-1.28-2.63h0c.43-.68,1.7-.6,2.89.17s1.7,1.87,1.28,2.63Z" transform="translate(-46.24 -24.84)"/><path id="SvgjsPath3206" class="cls-19" d="M203.28,192c-1,1.62-3.66,1.7-5.87.26s-3.23-4-2.21-5.53,3.66-1.7,5.87-.25,3.23,3.91,2.21,5.52Z" transform="translate(-46.24 -24.84)"/></g></g></g><g id="oeildroit"><path id="SvgjsPath3154" class="cls-2" d="M160.57,193.34c5.78,20.66,13.34,42.59,31.62,43.27S231.8,223.35,232.05,196c.34-30.6-18.78-42.76-37.06-43.35S152,162.57,160.57,193.34Zm10.37-.85a16.65,16.65,0,0,1-.6-4.5c3.66-2.21,7.23-2.81,10.46-3.49a63.68,63.68,0,0,1,18.44-.59c8.25,1.27,14.2,6.37,19.3,14.53h0c0,.09,0,.09.08.17.43,1.87-1.44,3.32-3.82,4.42-8.5,1.11-16.75,2.72-25.42,1.62C172,202.35,171.79,194.53,170.94,192.49Z" transform="translate(-46.24 -24.84)"/><path id="SvgjsPath3155" class="cls-20" d="M194.82,214.59c16.58,2.55,32-5.52,34.34-18s-9.09-24.73-25.67-27.28-32,5.52-34.34,18S178.25,212,194.82,214.59ZM170.34,188a34.24,34.24,0,0,1,10.46-3.49,63.68,63.68,0,0,1,18.44-.59c8.25,1.27,14.2,6.37,19.3,14.53h0c0,.09,0,.09.08.17.43,1.87-1.44,3.32-3.82,4.42-8.5,1.11-16.75,2.72-25.42,1.62-17.34-2.3-17.68-10-18.44-12.07A15.18,15.18,0,0,1,170.34,188Z" transform="translate(-46.24 -24.84)"/><path id="SvgjsPath3160" class="cls-21" d="M170.94,192.49a16.65,16.65,0,0,1-.6-4.5,33.48,33.48,0,0,1,10.46-3.49,63.68,63.68,0,0,1,18.44-.59c8.25,1.27,14.2,6.37,19.3,14.53h0c0,.09,0,.09.08.17.43,1.87-1.44,3.32-3.82,4.42-8.5,1.11-16.75,2.72-25.42,1.62C172,202.35,171.79,194.53,170.94,192.49Z" transform="translate(-46.24 -24.84)"/><path id="SvgjsPath3164" class="cls-11" d="M198.56,179.06c5.87,1,11.65,3.74,17,7.23a36.63,36.63,0,0,0,4.51,2.63,15.16,15.16,0,0,1-4.17-1.87,34.06,34.06,0,0,1,3.57,4.25c-4.5-5.78-13.09-10.11-20.31-11.56-7-1.44-19.64-.51-29.07,3.74C178.67,178.55,191.25,177.87,198.56,179.06Z" transform="translate(-46.24 -24.84)"/><path id="SvgjsPath3165" class="cls-22" d="M218.62,198.27c-5.1-7.9-11.05-12.92-19.29-14.19-8.67-1.28-20.15-.43-27,3.4-.51.34-2.89,2.29-2.55.25,1.53-2.12,7.74-4.59,10.71-5.35C214.12,174.05,220.49,201.16,218.62,198.27ZM170.51,192c-1.27,3.74,1.53,12.16,18.19,13.69,11.82,1.1,28.22-3.23,26.18-3-8.58,1.11-16.74,2.64-25.41,1.53C169.75,201.76,172,192.32,170.51,192Z" transform="translate(-46.24 -24.84)"/></g></g></g><g id="svga-group-eyes-right-move"><g id="svga-group-eyes-right"><g id="svga-group-eyesback-right"><path id="SvgjsPath3137" class="cls-23" d="M281.86,184.16c-8.24,1.28-14.19,6.38-19.29,14.54h0c0,.08,0,.08-.09.17-.42,1.87,1.45,3.31,3.83,4.42,8.5,1.1,16.74,2.72,25.41,1.61,17.34-2.29,17.68-10,18.45-12.07a17,17,0,0,0,.59-4.5,29.54,29.54,0,0,0-10.45-3.66A61.22,61.22,0,0,0,281.86,184.16Z" transform="translate(-46.24 -24.84)"/></g><g id="svga-group-eyesiriswrapper-right"><g id="svga-group-eyesiriscontrol-right"><g id="svga-group-eyesiris-right"><path id="SvgjsPath3210" class="cls-13" d="M297.8,194.45a10.71,10.71,0,1,1-21.42,0h0a10.71,10.71,0,1,1,21.42,0Z" transform="translate(-46.24 -24.84)"/><path id="SvgjsPath3211" class="cls-24" d="M285.81,183.57h-.08c.08.25.08.51.17.76A2.2,2.2,0,0,1,285.81,183.57Zm.09.76c.08,3.57.34,6.8.93,8C287.09,191.05,286.58,187.82,285.9,184.33Zm.85,8c-.09.34-.17.51-.34.6a.76.76,0,0,1-.68-.17c.08.34.08.51-.09.68s-.34.17-.68.17c.17.25.34.42.26.68a.88.88,0,0,1-.51.42c.25.09.51.26.51.43s-.09.42-.26.68c.34,0,.51,0,.68.17a.9.9,0,0,1,.09.68.73.73,0,0,1,.68-.17c.17.08.25.25.34.59a1.53,1.53,0,0,1,.51-.51.74.74,0,0,1,.59.34.84.84,0,0,1,.26-.68,1,1,0,0,1,.68,0,.7.7,0,0,1-.09-.68c.09-.17.34-.25.6-.34-.26-.17-.43-.34-.43-.59s.17-.34.43-.6a.63.63,0,0,1-.6-.34,1,1,0,0,1,.09-.68c-.26.09-.51.17-.68,0s-.26-.34-.26-.68a.72.72,0,0,1-.59.34C287.09,192.75,286.92,192.58,286.75,192.32Zm1.1.09c.85-.94,1.87-4,2.81-7.48C289.13,188.16,287.85,191.13,287.85,192.41Zm2.81-7.48c.08-.26.25-.43.34-.68a.09.09,0,0,1-.09-.09Zm-1.87,8.16c1.19-.43,3.48-2.72,5.86-5.27C291.85,189.94,289.38,191.9,288.79,193.09Zm5.86-5.36c.17-.17.34-.25.51-.42l-.08-.09A2.43,2.43,0,0,1,294.65,187.73Zm-5.35,6.38c1.27.17,4.33-.77,7.65-1.87C293.46,192.75,290.32,193.34,289.3,194.11Zm7.65-2c.17,0,.42-.08.59-.08V192C297.29,192.07,297.12,192.07,297,192.15Zm-7.65,3.06c1,.77,4.16,1.36,7.65,2C293.55,196,290.57,195,289.3,195.21Zm7.65,2c.17.08.34.08.51.17v-.09A1.14,1.14,0,0,0,297,197.17Zm-8.16-1c.59,1.19,3.06,3.14,5.86,5.35C292.19,199,290,196.66,288.79,196.15Zm5.86,5.35.34.34.09-.08A2,2,0,0,1,294.65,201.5Zm-6.8-4.67c0,1.27,1.28,4.25,2.81,7.48C289.64,200.82,288.7,197.76,287.85,196.83Zm2.81,7.48c0,.17.08.25.08.42h.09C290.74,204.56,290.66,204.48,290.66,204.31Zm-3.91-7.4c-.6,1.19-.85,4.34-.94,8C286.49,201.42,287.09,198.19,286.75,196.91Zm-.94,8c0,.17-.08.26-.08.43h.08Zm-.08-8.33c-1.11.77-2.72,3.49-4.51,6.63C283.52,200.4,285.47,197.85,285.73,196.57Zm-4.51,6.55c-.08.08-.17.25-.25.34a.08.08,0,0,1,.08.08C281.14,203.37,281.22,203.29,281.22,203.12Zm3.83-7.4c-1.28.17-4,1.79-7,3.74C281.31,198,284.2,196.66,285.05,195.72Zm-7,3.66a1.28,1.28,0,0,1-.51.17v.08A.73.73,0,0,0,278.08,199.38Zm6.71-4.76c-1.19-.51-4.33-.34-7.9,0C280.37,194.87,283.52,195,284.79,194.62Zm-7.9,0a1.39,1.39,0,0,1-.6-.09v.09Zm8.16-1.11c-.85-1-3.74-2.29-7-3.74C281.05,191.73,283.77,193.34,285.05,193.51Zm-7-3.74a4.41,4.41,0,0,0-.6-.34s0,.09-.08.09A6.31,6.31,0,0,1,278.08,189.77Zm7.65,2.89c-.34-1.27-2.21-3.82-4.42-6.63C283.09,189.18,284.71,192,285.73,192.66Zm-4.42-6.54a4.3,4.3,0,0,1-.34-.68l-.09.08C281,185.69,281.14,185.86,281.31,186.12Z" transform="translate(-46.24 -24.84)"/><path id="SvgjsPath3215" class="cls-25" d="M288.62,183.57h-.09a2.46,2.46,0,0,1-.08.76C288.53,184.08,288.53,183.82,288.62,183.57Zm-.17.76c-.77,3.49-1.45,6.63-1.11,7.91C287.94,191.13,288.28,187.9,288.45,184.33Zm-1.11,8c-.17.26-.34.43-.51.43a.74.74,0,0,1-.59-.34.84.84,0,0,1-.26.68,1,1,0,0,1-.68,0,.7.7,0,0,1,.09.68.67.67,0,0,1-.6.25c.26.17.43.34.43.6s-.17.34-.43.51c.34.08.51.17.6.34a1,1,0,0,1-.09.68.88.88,0,0,1,.68,0c.17.08.26.34.17.68a.73.73,0,0,1,.6-.34q.25,0,.51.51c.08-.34.17-.51.42-.6a.76.76,0,0,1,.68.17c-.08-.34-.08-.51.09-.68s.34-.17.68-.17c-.17-.25-.34-.42-.26-.68a.88.88,0,0,1,.51-.42c-.25-.09-.51-.26-.51-.43a1.39,1.39,0,0,1,.26-.68c-.34,0-.51,0-.68-.17a.9.9,0,0,1-.09-.68.73.73,0,0,1-.68.17C287.51,192.83,287.43,192.58,287.34,192.32Zm1,.43c1.11-.68,2.81-3.4,4.59-6.46C290.66,188.92,288.7,191.47,288.36,192.75ZM293,186.2a3.87,3.87,0,0,0,.51-.59l-.08-.09A4.47,4.47,0,0,1,293,186.2ZM289,193.6c1.28-.17,4-1.7,7.06-3.57C292.78,191.3,289.89,192.58,289,193.6ZM296.1,190c.17-.09.42-.17.59-.26a.08.08,0,0,0-.08-.08A4,4,0,0,0,296.1,190Zm-6.8,4.67c1.19.51,4.33.43,7.9.17C293.63,194.45,290.49,194.19,289.3,194.7Zm7.82.17c.17,0,.42.09.59.09v-.09C297.54,194.79,297.37,194.87,297.12,194.87Zm-8.08.85c.85,1,3.66,2.38,6.89,3.91C293,197.59,290.32,195.89,289,195.72Zm6.8,3.91a.91.91,0,0,1,.43.34.08.08,0,0,1,.08-.08Zm-7.56-3.06c.25,1.28,2.12,3.91,4.33,6.72C290.91,200.14,289.3,197.34,288.28,196.57Zm4.33,6.72c.09.17.17.25.26.42l.08-.08C292.78,203.54,292.7,203.37,292.61,203.29Zm-5.35-6.38c-.34,1.28.17,4.42.76,8C287.94,201.33,287.77,198.1,287.26,196.91Zm.76,8v.43h.09A.63.63,0,0,1,288,204.9Zm-1.87-8.16c-.85.94-1.87,4-3,7.48C284.79,201,286.07,198.1,286.15,196.74Zm-3,7.48c-.09.09-.09.26-.17.34h.08C283.09,204.48,283.18,204.31,283.18,204.22Zm2-8.07c-1.19.42-3.49,2.63-6,5.18C282.16,199.21,284.62,197.25,285.22,196.15Zm-6,5.18c-.09.09-.26.17-.34.26l.08.08C279,201.5,279.1,201.42,279.27,201.33Zm5.52-6.2c-1.27-.17-4.33.68-7.65,1.7C280.54,196.4,283.69,195.81,284.79,195.13Zm-7.73,1.7c-.17,0-.34.08-.51.08V197A1,1,0,0,0,277.06,196.83Zm7.73-2.81c-1-.76-4.16-1.44-7.56-2.12C280.54,193.09,283.52,194.11,284.79,194Zm-7.56-2.12a1.14,1.14,0,0,0-.51-.17v.08A2.68,2.68,0,0,0,277.23,191.9Zm8.07,1.1c-.59-1.19-3-3.23-5.78-5.44C281.9,190.2,284.11,192.49,285.3,193Zm-5.78-5.44a2.1,2.1,0,0,1-.42-.51l-.09.09C279.18,187.31,279.35,187.39,279.52,187.56Zm6.72,4.85c0-1.28-1.19-4.25-2.64-7.57C284.54,188.33,285.39,191.39,286.24,192.41Zm-2.64-7.57a5.6,5.6,0,0,0-.17-.68h-.08C283.43,184.42,283.52,184.59,283.6,184.84Z" transform="translate(-46.24 -24.84)"/><path id="SvgjsPath3219" class="cls-13" d="M291.25,194.45a4.28,4.28,0,0,1-4.25,4.33,4.34,4.34,0,0,1-4.25-4.33,4.25,4.25,0,1,1,8.5,0Z" transform="translate(-46.24 -24.84)"/><path id="SvgjsPath3220" class="cls-16" d="M291.25,194.45a4.28,4.28,0,0,1-4.25,4.33,4.34,4.34,0,0,1-4.25-4.33,4.25,4.25,0,1,1,8.5,0Z" transform="translate(-46.24 -24.84)"/><path id="SvgjsPath3221" class="cls-26" d="M281.14,199.46a1.79,1.79,0,0,1,2.46.51,1.78,1.78,0,0,1-.51,2.47,1.73,1.73,0,0,1-2.46-.51,1.85,1.85,0,0,1,.51-2.47Z" transform="translate(-46.24 -24.84)"/><path id="SvgjsPath3225" class="cls-27" d="M290.4,193.85c-.42.68-1.7.6-2.89-.17s-1.7-2-1.27-2.63h0c.42-.68,1.7-.6,2.89.17s1.7,1.87,1.27,2.63Z" transform="translate(-46.24 -24.84)"/><path id="SvgjsPath3229" class="cls-28" d="M295.5,192c-1,1.62-3.65,1.7-5.86.26s-3.23-4-2.21-5.53,3.65-1.7,5.86-.25,3.23,3.91,2.21,5.52Z" transform="translate(-46.24 -24.84)"/></g></g></g><g id="oeilgauche"><path id="SvgjsPath3175" class="cls-2" d="M286,152.88c-18.28.68-37.32,12.75-37.06,43.35.25,27.37,21.59,41.31,39.86,40.63s29-31.62,31.62-43.26C327.76,162.49,304.3,152.29,286,152.88Zm5.78,51.94c-8.67,1.1-16.83-.51-25.42-1.62-2.38-1.1-4.33-2.63-3.82-4.42,0-.08,0-.08.08-.17h0c5.1-8.16,11.05-13.26,19.3-14.53a63.55,63.55,0,0,1,18.44.59c3.23.68,6.89,1.28,10.46,3.49a14,14,0,0,1-.6,4.5C309.4,194.79,309.15,202.61,291.81,204.82Z" transform="translate(-46.24 -24.84)"/><path id="SvgjsPath3176" class="cls-29" d="M312,187.56c-2.38-12.49-17.77-20.57-34.34-18s-28,14.79-25.67,27.29,17.76,20.57,34.34,18S314.42,200.06,312,187.56Zm-1.79,5.19c-.85,2-1.19,9.86-18.44,12.07-8.67,1.1-16.83-.51-25.42-1.62-2.38-1.1-4.33-2.63-3.82-4.42,0-.08,0-.08.08-.17h0c5.1-8.16,11.05-13.26,19.3-14.53a63.55,63.55,0,0,1,18.44.59,34.24,34.24,0,0,1,10.46,3.49A14.22,14.22,0,0,1,310.25,192.75Z" transform="translate(-46.24 -24.84)"/><path id="SvgjsPath3181" class="cls-30" d="M310.25,192.75a16.67,16.67,0,0,0,.6-4.51,33.7,33.7,0,0,0-10.46-3.48,63.64,63.64,0,0,0-18.44-.6c-8.25,1.28-14.2,6.38-19.3,14.54h0c0,.08,0,.08-.08.17-.43,1.87,1.44,3.31,3.82,4.42,8.5,1.1,16.75,2.72,25.42,1.61C309.15,202.61,309.4,194.79,310.25,192.75Z" transform="translate(-46.24 -24.84)"/><path id="SvgjsPath3185" class="cls-11" d="M282.63,179.32c-5.87,1-11.65,3.74-17,7.22a35.24,35.24,0,0,1-4.51,2.64,15.46,15.46,0,0,0,4.17-1.87,32.67,32.67,0,0,0-3.57,4.25c4.5-5.78,13.09-10.12,20.31-11.56,7-1.45,19.64-.51,29.07,3.74C302.52,178.81,289.94,178.13,282.63,179.32Z" transform="translate(-46.24 -24.84)"/><path id="SvgjsPath3186" class="cls-22" d="M300.56,182.63c3,.77,9.18,3.23,10.71,5.36.34,2-1.95.08-2.55-.26-6.71-3.74-18.27-4.67-26.94-3.4-8.25,1.19-14.2,6.21-19.3,14.2C260.7,201.42,267,174.39,300.56,182.63Zm-8.75,21.93c-8.67,1.11-16.92-.42-25.42-1.53-2-.25,14.37,4.08,26.18,3,16.66-1.53,19.47-9.95,18.19-13.69C309.23,192.66,311.44,202.1,291.81,204.56Z" transform="translate(-46.24 -24.84)"/></g></g></g><g id="svga-group-facehighlight-single"><path id="SvgjsPath2906" class="cls-31" d="M314.33,249.19c.09,41.31-32.72,74.88-73.27,75s-73.44-33.41-73.52-74.72,32.72-75.05,73.27-75.05C281.35,174.22,314.25,207.88,314.33,249.19Z" transform="translate(-46.24 -24.84)"/><path id="SvgjsPath2910" class="cls-32" d="M308,139.62c0,37.83-30.09,68.51-67.15,68.51s-67.15-30.68-67.15-68.51,30.09-68.51,67.15-68.51S308,101.8,308,139.62Z" transform="translate(-46.24 -24.84)"/></g><g id="svga-group-eyebrows-left-move"><g id="svga-group-eyebrows-left-rotate"><g id="svga-group-eyebrows-left"><path id="SvgjsPath3237" class="cls-1" d="M155.89,175.92c13.35-17.17,36.38-14.28,55.25-11.56a120.13,120.13,0,0,1,14.45,2.46c3.4.85,6,4.76,3.32,8-1.28,1.53-4,1.19-5.78,1.19C200.6,175.49,175,162.23,155.89,175.92Z" transform="translate(-46.24 -24.84)"/></g></g></g><g id="svga-group-eyebrows-right-move"><g id="svga-group-eyebrows-right-rotate"><g id="svga-group-eyebrows-right"><path id="SvgjsPath3238" class="cls-1" d="M326.15,175.24A31.43,31.43,0,0,0,313.57,170c-17-2.81-49.39,8.75-57.89,6.29-5.18-1.53-4.16-6.8-1.87-8.16,1.36-.77,1.79-.77,14.2-3C289,161.47,312.55,158.49,326.15,175.24Z" transform="translate(-46.24 -24.84)"/></g></g></g><g id="svga-group-nose-single-move"><g id="svga-group-nose-single"><path id="SvgjsPath3044" class="cls-4" d="M225.08,252c-1.53,3.74,10.63,7.82,15.22,8.08,5,.25,19-5.27,16.66-9.1-2.47-4-11.9-.51-16-.51S227.12,246.89,225.08,252Z" transform="translate(-46.24 -24.84)"/><path id="SvgjsPath3045" class="cls-11" d="M244.29,254.8c-.42-1.36,3.4-2.89,4.76-3.06,2-.26,6,1.44,5.7,2.89-.34,1.27-3.83-.94-5.1-.77S244.63,256.07,244.29,254.8ZM232,254.37c1.7,0,4.33,1.11,4.76.17.59-1.19-3.83-2.63-5.1-2.46-1.11.17-4.93,2.38-4.34,3.4C227.72,256.24,229.67,254.37,232,254.37Z" transform="translate(-46.24 -24.84)"/><path id="SvgjsPath3046" class="cls-33" d="M241.15,245.53c1.1,0,3.14-1.36,3.23-4.08.34-11-1.7-43.52-3.23-43.43-1.36.08-4.08,32.21-3.49,43.43A3.94,3.94,0,0,0,241.15,245.53Z" transform="translate(-46.24 -24.84)"/></g></g><g id="svga-group-beardwrap"><g id="svga-group-beard-single-move"><g id="svga-group-beard-single"><path id="SvgjsPath3259" class="cls-1" d="M240.55,338.27c-19.72-1.62-33.74-8.16-50-23.38-15.89-14-28.22-35-30.85-46.92,60.86,71.4,103.53,69.7,162.26,1.11C314.5,299.93,273.79,338.27,240.55,338.27Z" transform="translate(-46.24 -24.84)"/></g></g></g><g id="svga-group-hair-front"><path id="SvgjsPath3250" class="cls-1" d="M142.46,207.34c-4.33-16.07-6.71-30.18-9.94-44.88h.17c-1.19-3.06-5.7-27.54-5.7-27.8-4.5-32.47,8.93-34.34,8.67-47.85,5.7,2.89,11.14,1.44,16.15-2.47-5.18-2.72-3.57-3.14-10.54-7.48,4.93-.85,7.74.34,11.9.85-3.57-3.65-10.54-11-15-10l-.26-.68c6.55-5.18,15.3,5.61,23.21,2.72.25-29.92,43.09-36.12,53.55-40.54,13.85-5.36,28.39,10.74,38.59,9.72-5.78,6-9.35-12.53-9.61-5.39,8.42-8.16,9,20,21.76,5.56,0,11.65-3.14-14.91-7.22-8.11,11.13-7.39,25-.3,46.32-3.45l.26.68C297,32.78,291,40.6,287.05,51.4c4.08-5,9.77-10.37,16.06-11.39l.26.68c-4,2.38-11.73-17.55-13.52-4,7.82-8.93,20.32,11.68,28.9,8.87l.34.6c-7.82,6.54-11-10.07-12.75-.29,5.53-8.33,8.76-10.29,15.64-13.77-2.21,3.4-2.12,2.8-3.82,6.54,4.25,11.22,18.44,11.65,20.91,31.2a62.31,62.31,0,0,1,7.39-5.61l.51.51c-2.55,4-4.59,11.05-6,15.81,5-3.91,12.67-6.72,18.11-8.76l.34.6c-4.59,4.76-10.12,12-11.05,19.8a27.25,27.25,0,0,0,4.16-2.72c0,5.61.17,4.93.26,7.48a47.92,47.92,0,0,0,4.08-4c-.34,59.16-3.32,47.34-11.31,88.57-1.44,7.22-3.91,19.89-5.44,25.92l-10.79,1.87c3.31-40.88-.17-32,2.29-57.71,3.57-38-26.52-69.11-66.3-58.91-8.07,2-40.2,2-48.19,0-44-11.22-59.76,15-64.52,60.78-2.29,22.52-2.89,14.87.51,55.84Z" transform="translate(-46.24 -24.84)"/><path id="SvgjsPath3251" class="cls-34" d="M352.58,96.75c0-2.55-.25-1.87-.25-7.48A36.47,36.47,0,0,1,348.16,92c.94-7.82,6.46-15,11-19.8l-.34-.6c-5.44,2-13.09,4.85-18.1,8.76,1.36-4.76,3.48-11.82,6-15.81l-.51-.51a72.77,72.77,0,0,0-7.4,5.61c-2.38-19.55-16.57-20-20.91-31.2a35.94,35.94,0,0,1,3.83-6.54c-7,3.48-10.12,5.44-15.64,13.77C307.87,36,311,52.5,318.84,46l-.34-.6c-8.59,2.81-21.08-17.8-28.9-8.87,1.78-13.52,9.52,6.41,13.51,4l-.25-.68c-6.29.93-12.07,6.37-16.07,11.39,4.08-10.8,10-18.62,17.68-23.21l-.25-.68c-21.34,3.23-35.19-3.94-46.33,3.45,4.08-6.8,7.23,19.76,7.23,8.11-12.75,14.45-13.35-13.8-21.76-5.56.25-7.14,3.82,11.34,9.6,5.39-10.2,1-24.73-15.08-38.59-9.72-10.45,4.42-53.29,10.62-53.46,40.54-7.91,3-16.66-7.9-23.21-2.72l.26.68c4.5-1,11.47,6.38,15,10-4.16-.51-7-1.7-11.9-.85,7,4.34,5.27,4.76,10.54,7.48-4.93,4-10.45,5.36-16.15,2.47.26,13.51-13.17,15.38-8.67,47.85,0,.26,4.51,24.65,5.7,27.8h-.17c3.23,14.7-9.78-27.8,1.1-55.17,1.45-3.57,6.89-13,6.89-13s17.25-2.3,18-9.1A23.93,23.93,0,0,1,153,81.37c3.57,1.78,3.57-3.66,7.14-1.79,0-3.65-5.35-1.78-5.35-5.44,3.57,0,7.14,0,10.71,3.66-1.79-9.1,0-18.28,7.14-23.72,17.93-14.62,41.14-12.75,59.07-27.37-1.78,9.1-3.57,18.28-3.57,27.37,10.71-5.44,14.28-16.4,23.29-23.71,1.79,7.31-1.78,16.4-1.78,23.71C255,41.33,262.14,28.5,278.29,24.84c-7.14,7.31-7.14,18.28-7.14,27.37,0-7.31,7.14-11,8.93-16.4V57.74c3.57-11,10.71-16.41,19.72-20.06-7.14,7.31-5.36,14.62-7.14,23.71C298,56,305.15,54.08,310.59,48.64c5.36,11,1.79,20.06,1.79,31,1.78-9.1,10.71-14.62,16.15-21.93a70.81,70.81,0,0,1,0,27.37c1.78-5.44,5.35-9.1,7.14-14.62a76.69,76.69,0,0,1-3.57,24c2.21-2.64,5.95-3.83,7.14-7.57v22c1-2.21,4.08-3,5.35-5.53-1.53,6.21-.42,11.14-.08,17,.68-3.57,4.08-5.78,5.27-9.09.08-1.45.17-2.81.17-4.25a7.13,7.13,0,0,1-.17,4.25c-1.62,32.47-4.68,64.85-11.22,96.13,0,0,5.27-18.95,6.63-26.18,8-41.22,11-29.41,11.3-88.57A23.16,23.16,0,0,1,352.58,96.75Z" transform="translate(-46.24 -24.84)"/></g><g id="svga-group-glasses-single-move"><g id="svga-group-glasses-single"><path id="SvgjsPath3241" class="cls-35" d="M160.4,180.51c21.42,3.06,45.64-9.95,65.79,2.55a.45.45,0,0,1,.25.42c-.08,2.21.43,15.47.34,16.15-1.1,5.36-5.78,8.84-11.39,9.86-15.13,2.72-40.37,2.38-55.16,1.36A4.61,4.61,0,0,1,156,207.2c-1.28-7.23.25-16.83,1.7-24.74A2.33,2.33,0,0,1,160.4,180.51Zm91.8,6.29a72.88,72.88,0,0,0,1.44,13c1.11,5.36,5.78,8.84,11.39,9.86,15.13,2.72,40.38,2.38,55.17,1.36,2.12-.17,5.52-1.61,5.86-3.65.51-3-1.7-21.34-1.53-25.42a.49.49,0,0,0-.51-.51c-89.33-7.56-66.38,5.44-68.93-.85C254.92,181.27,252.11,186,252.2,186.8Z" transform="translate(-46.24 -24.84)"/><path id="SvgjsPath3243" d="M335.84,184.84h-9.35a.71.71,0,0,0-.09-.42,6.17,6.17,0,0,0-5.61-4.85c-23.12-2.21-38.67-1.95-60.86-.17a2.6,2.6,0,0,0-.76.17l.08-.08-.59.17c-.17,0-.34.08-.51.08a55.37,55.37,0,0,1-9.61,1.36c-7,.26-8.5.17-15.21,0a55.37,55.37,0,0,1-9.61-1.36,1.14,1.14,0,0,0-.51-.08l-.59-.17.08.08a2.32,2.32,0,0,1-.76-.17c-22.19-1.78-37.74-2-60.86.17a6.17,6.17,0,0,0-5.61,4.85.71.71,0,0,1-.09.42H146v5.36h8.59a46.92,46.92,0,0,0-.09,9.09h1.87a49.68,49.68,0,0,1,.94-14.45,4.27,4.27,0,0,1,4-3.4c11.31-1.1,20.91-1.53,30.43-1.53,8.93,0,17.85.43,30.09,1.36a6.57,6.57,0,0,1,6.21,6.63,63.24,63.24,0,0,1-1.28,11.48h2a69.5,69.5,0,0,0,1.19-11.48,9.08,9.08,0,0,0-.68-3.4,26.87,26.87,0,0,1,2.72-.42c4.5-.34,14.45-.26,18.1,0a13.68,13.68,0,0,1,2.72.42,7.75,7.75,0,0,0-.68,3.4,71.49,71.49,0,0,0,1.19,11.48h2a62.39,62.39,0,0,1-1.19-11.48,6.66,6.66,0,0,1,6.2-6.63c12.24-.93,21.17-1.36,30.09-1.36,9.44,0,19.13.51,30.43,1.53a4.45,4.45,0,0,1,4,3.4,50.34,50.34,0,0,1,.93,14.45h1.87a54.25,54.25,0,0,0-.08-9.09h8.58v-5.36Z" transform="translate(-46.24 -24.84)"/></g></g></g></g></g><polygon class="cls-1" points="283.19 183.77 261.26 260.76 276.06 244.26 293.93 182.58 283.19 183.77"/></g><polyline class="cls-1" points="112.96 245.56 96.03 181.79 106.83 183.29 128.46 262.46"/><polyline class="cls-1" points="136.66 269.36 122.96 244.96 127.96 261.66"/></svg>