<svg id="Calque_1" data-name="Calque 1" xmlns="http://www.w3.org/2000/svg" xmlns:xlink="http://www.w3.org/1999/xlink" viewBox="0 0 768 1366"><defs><style>.cls-1,.cls-38,.cls-40,.cls-42{fill:#dfe6e9;}.cls-2{fill:#2d3436;}.cls-3{clip-path:url(#clip-path);}.cls-4{fill:#2a232b;}.cls-10,.cls-5{fill:#f0c7b1;}.cls-6{fill:#ffe4d6;}.cls-7{fill:#e1ac8f;}.cls-8{fill:none;}.cls-10,.cls-8{stroke:#c27b55;stroke-width:1.5px;}.cls-9{fill:url(#Dégradé_sans_nom_3);}.cls-11{fill:#e8b9a0;}.cls-12{fill:url(#Dégradé_sans_nom_2);}.cls-13{fill:#c27b55;}.cls-14{fill:url(#Dégradé_sans_nom_11);}.cls-15{fill:#4d3623;}.cls-16,.cls-26{opacity:0.7;}.cls-16,.cls-17,.cls-18,.cls-19,.cls-20,.cls-21,.cls-26,.cls-27,.cls-28,.cls-29,.cls-30,.cls-35,.cls-37{isolation:isolate;}.cls-16{fill:url(#Dégradé_sans_nom_13);}.cls-17,.cls-27{opacity:0.4;}.cls-17{fill:url(#Dégradé_sans_nom_13-2);}.cls-18{opacity:0.9;}.cls-19,.cls-20,.cls-28,.cls-29{opacity:0.5;}.cls-19{fill:url(#Dégradé_sans_nom_16);}.cls-20{fill:url(#Dégradé_sans_nom_16-2);}.cls-21,.cls-30{opacity:0.75;}.cls-21{fill:url(#Dégradé_sans_nom_16-3);}.cls-22{fill:url(#Dégradé_sans_nom_17);}.cls-23{fill:url(#Dégradé_sans_nom_18);}.cls-24{fill:#2a150e;}.cls-25{fill:url(#Dégradé_sans_nom_11-2);}.cls-26{fill:url(#Dégradé_sans_nom_13-3);}.cls-27{fill:url(#Dégradé_sans_nom_13-4);}.cls-28{fill:url(#Dégradé_sans_nom_16-4);}.cls-29{fill:url(#Dégradé_sans_nom_16-5);}.cls-30{fill:url(#Dégradé_sans_nom_16-6);}.cls-31{fill:url(#Dégradé_sans_nom_17-2);}.cls-32{fill:url(#Dégradé_sans_nom_18-2);}.cls-33{fill:url(#Dégradé_sans_nom_20);}.cls-34{fill:url(#Dégradé_sans_nom_20-2);}.cls-35{fill:#fff5ef;}.cls-35,.cls-37{opacity:0.2;}.cls-36{fill:#3a353a;}.cls-37{fill:#fff;}.cls-38{font-size:100px;font-family:AkayaKanadaka-Regular, Akaya Kanadaka;}.cls-39{letter-spacing:-0.01em;}.cls-40{font-size:74px;}.cls-40,.cls-42{font-family:TitilliumWeb-Regular, Titillium Web;}.cls-41{letter-spacing:0em;}.cls-42{font-size:42px;}.cls-43{letter-spacing:-0.03em;}</style><clipPath id="clip-path" transform="translate(0.5 0.5)"><circle class="cls-1" cx="383" cy="311" r="227"/></clipPath><linearGradient id="Dégradé_sans_nom_3" x1="-308.92" y1="1922.55" x2="-308.92" y2="1968.95" gradientTransform="matrix(1.81, 0, 0, -1.81, 943.59, 4020.41)" gradientUnits="userSpaceOnUse"><stop offset="0" stop-color="#e1ac8f" stop-opacity="0.8"/><stop offset="0.7" stop-color="#c27b55"/></linearGradient><linearGradient id="Dégradé_sans_nom_2" x1="-308.35" y1="1959.37" x2="-308.35" y2="1962.6" gradientTransform="matrix(1.81, 0, 0, -1.81, 943.59, 4020.41)" gradientUnits="userSpaceOnUse"><stop offset="0.1" stop-color="#e8b9a0"/><stop offset="1" stop-color="#e1ac8f"/></linearGradient><radialGradient id="Dégradé_sans_nom_11" cx="-1577.23" cy="2363.33" r="13.25" gradientTransform="matrix(-2.53, 0.09, -0.15, -1.79, -3332.03, 4713.32)" gradientUnits="userSpaceOnUse"><stop offset="0" stop-color="#fff"/><stop offset="0.54" stop-color="#fdfefe"/><stop offset="0.74" stop-color="#f6f8f9"/><stop offset="0.88" stop-color="#eaeff2"/><stop offset="0.99" stop-color="#d9e3e8"/><stop offset="1" stop-color="#d8e2e7"/></radialGradient><radialGradient id="Dégradé_sans_nom_13" cx="592.07" cy="129.28" r="9.11" gradientTransform="translate(-582.05 178.39) scale(1.52 1.25)" gradientUnits="userSpaceOnUse"><stop offset="0" stop-color="#fff"/><stop offset="1" stop-color="#fff" stop-opacity="0"/></radialGradient><radialGradient id="Dégradé_sans_nom_13-2" cx="818.9" cy="18.79" r="12.4" xlink:href="#Dégradé_sans_nom_13"/><linearGradient id="Dégradé_sans_nom_16" x1="-292.53" y1="2027.15" x2="-291.45" y2="2028.45" gradientTransform="matrix(1.81, 0, 0, -1.81, 834.07, 4020.41)" xlink:href="#Dégradé_sans_nom_13"/><linearGradient id="Dégradé_sans_nom_16-2" x1="-285.87" y1="2034.87" x2="-286.77" y2="2033.8" gradientTransform="matrix(1.81, 0, 0, -1.81, 834.07, 4020.41)" xlink:href="#Dégradé_sans_nom_13"/><linearGradient id="Dégradé_sans_nom_16-3" x1="-282.31" y1="2038.11" x2="-284.35" y2="2035.68" gradientTransform="matrix(1.81, 0, 0, -1.81, 834.07, 4020.41)" xlink:href="#Dégradé_sans_nom_13"/><radialGradient id="Dégradé_sans_nom_17" cx="596.69" cy="125.64" fx="614.8424594936097" r="23.01" gradientTransform="translate(-582.05 178.39) scale(1.52 1.25)" gradientUnits="userSpaceOnUse"><stop offset="0" stop-color="#e1ac8f"/><stop offset="0.7" stop-color="#e1ac8f" stop-opacity="0.3"/><stop offset="1" stop-color="#f0c7b1" stop-opacity="0"/></radialGradient><radialGradient id="Dégradé_sans_nom_18" cx="377.23" cy="2814.68" r="26.24" gradientTransform="matrix(1.65, -0.11, -0.18, -1.19, 196.83, 3759.86)" gradientUnits="userSpaceOnUse"><stop offset="0.95" stop-opacity="0"/><stop offset="1" stop-opacity="0.2"/></radialGradient><radialGradient id="Dégradé_sans_nom_11-2" cx="-168.23" cy="2429.33" r="13.25" gradientTransform="matrix(2.53, 0.09, 0.15, -1.79, 513.97, 4713.32)" xlink:href="#Dégradé_sans_nom_11"/><radialGradient id="Dégradé_sans_nom_13-3" cx="684.97" cy="129.28" r="8.9" xlink:href="#Dégradé_sans_nom_13"/><radialGradient id="Dégradé_sans_nom_13-4" cx="685.06" cy="129.26" r="8.91" xlink:href="#Dégradé_sans_nom_13"/><linearGradient id="Dégradé_sans_nom_16-4" x1="-275.23" y1="2027.14" x2="-274.13" y2="2028.45" gradientTransform="matrix(1.81, 0, 0, -1.81, 942.61, 4020.41)" xlink:href="#Dégradé_sans_nom_13"/><linearGradient id="Dégradé_sans_nom_16-5" x1="-268.52" y1="2034.85" x2="-269.42" y2="2033.78" gradientTransform="matrix(1.81, 0, 0, -1.81, 942.61, 4020.41)" xlink:href="#Dégradé_sans_nom_13"/><linearGradient id="Dégradé_sans_nom_16-6" x1="-264.96" y1="2038.09" x2="-267" y2="2035.65" gradientTransform="matrix(1.81, 0, 0, -1.81, 942.61, 4020.41)" xlink:href="#Dégradé_sans_nom_13"/><radialGradient id="Dégradé_sans_nom_17-2" cx="942.82" cy="5.71" fx="967.8652211052708" r="31.77" xlink:href="#Dégradé_sans_nom_17"/><radialGradient id="Dégradé_sans_nom_18-2" cx="-1763.18" cy="3021.56" r="26.24" gradientTransform="matrix(-1.65, -0.11, 0.18, -1.19, -3014.89, 3759.87)" xlink:href="#Dégradé_sans_nom_18"/><radialGradient id="Dégradé_sans_nom_20" cx="-63.36" cy="2284.51" r="40.98" gradientTransform="matrix(2.31, 0, 0, -1.95, 531.33, 4851.98)" gradientUnits="userSpaceOnUse"><stop offset="0" stop-color="#ffe4d6" stop-opacity="0.5"/><stop offset="0.9" stop-color="#f0c7b1" stop-opacity="0"/></radialGradient><radialGradient id="Dégradé_sans_nom_20-2" cx="58.31" cy="2947.26" r="37" gradientTransform="matrix(1.52, 0, 0, -1.25, -521.19, 3904.51)" xlink:href="#Dégradé_sans_nom_20"/></defs><title>couverture</title><rect class="cls-2" width="768" height="1366"/><circle class="cls-1" cx="383.5" cy="311.5" r="227"/><g class="cls-3"><g id="svga-group-wrapper"><g id="svga-group-humanwrap-move"><g id="svga-group-humanwrap"><g id="svga-group-hair-back-move"><g id="svga-group-hair-back"><path id="SvgjsPath3248" class="cls-4" d="M385.81,378.52h-3.19V376h3.13Z" transform="translate(0.5 0.5)"/></g></g><g id="svga-group-humanbody-single"><path id="SvgjsPath2914" class="cls-5" d="M643.66,605.78c-5.94-10.88-22.31-27-40.37-31.47-22.44-5.55-72.84-12.16-91.59-15.89-15-3-45.28-25.92-55.86-33.6a8.94,8.94,0,0,1-3.47-6.27c-.4-25,11.35-91.08,11.35-91.08H305.31s11.73,66.12,11.35,91.08a8.66,8.66,0,0,1-3.49,6.27c-10.62,7.68-40.88,30.62-55.84,33.6-18.71,3.77-69.28,10.56-91.59,16.1-18.06,4.48-34.45,20.38-40.38,31.26C115.3,624.12,112.9,657.4,112.9,686H656.19C656.19,657.4,653.72,624.12,643.66,605.78Z" transform="translate(0.5 0.5)"/><path id="SvgjsPath2915" class="cls-6" d="M545.13,569.71c66.19,8.11,93.92,19.94,102.69,116.27h8.26c0-28.7-2.32-61.87-12.51-80.21-5.93-10.88-22.32-27-40.38-31.48-22.45-5.54-72.86-12.16-91.6-15.89-15-3-49.54-27.6-58.83-37.44,9.1,10.78,34.71,35.74,57.16,42.35C520.88,566.4,529.78,567.79,545.13,569.71Zm-286.27-6.4C281.31,556.8,307,531.74,316,521c-9.29,9.81-43.73,34.56-58.83,37.44-18.7,3.77-69.27,10.56-91.6,16.11-18.06,4.48-34.44,20.38-40.37,31.26-10.06,18.34-12.52,51.62-12.52,80.21h8.25c8.63-95.69,36.64-108.16,102.73-116.27,15.45-1.92,24.48-3.31,35.2-6.4Z" transform="translate(0.5 0.5)"/><path id="SvgjsPath2916" class="cls-7" d="M401.93,597.49l-.78.64A4.11,4.11,0,0,0,401.93,597.49Z" transform="translate(0.5 0.5)"/><path id="SvgjsPath2917" class="cls-8" d="M643.66,605.78c-5.94-10.88-22.31-27-40.37-31.47-22.44-5.55-72.84-12.16-91.59-15.89-15-3-45.28-25.92-55.86-33.6a8.94,8.94,0,0,1-3.47-6.27c-.4-25,11.35-91.08,11.35-91.08H305.31s11.73,66.12,11.35,91.08a8.66,8.66,0,0,1-3.49,6.27c-10.62,7.68-40.88,30.62-55.84,33.6-18.71,3.77-69.28,10.56-91.59,16.1-18.06,4.48-34.45,20.38-40.38,31.26C115.3,624.12,112.9,657.4,112.9,686H656.19C656.19,657.4,653.72,624.12,643.66,605.78Z" transform="translate(0.5 0.5)"/></g><g id="svga-group-chinshadow-single"><path id="SvgjsPath3071" class="cls-9" d="M450.43,519.41a4.61,4.61,0,0,1-.12-1.17c-.26-17,4.91-52.05,8.38-73.5-42.69-4.58-105.79-4.48-148.49,0,3.48,21.45,8.64,56.65,8.38,73.5a2.11,2.11,0,0,1-.12.86c10.44,8.2,20.76,14.93,30.05,18.66,14.45,5.87,57.16,5.54,71.74,0C429.67,534.24,440,527.63,450.43,519.41Z" transform="translate(0.5 0.5)"/></g><g id="svga-group-clothes-single"><path id="SvgjsPath3268" class="cls-2" d="M385.76,691c-98.64,0-197.38-3.64-293.45-5.33.38-46.41,20.81-101.32,77.58-117.35,13.36-4.24,43.82-7.22,66-9.34l1.92-.21.13-.85c0-.22.52-.54.77-.64q5.57-.51,11.05-1.49l1.92-.32h.57a3,3,0,0,1,1.94.74c31,28.23,68.9,43.18,102.3,56.36,9.11,3.55,17.81,7,25.94,10.56,1.41.63,2.7.21,4,.84s3,2.4,4.27,3l.64.32L392,627c40.63-21.23,86.51-46.43,118-72.26a2.46,2.46,0,0,1,1.52-.53h.57c2.45.43,4.76.85,7.2,1.18,3.11.43,6.2,1,9.24,1.7a.75.75,0,0,1,.4.42l.25.74.89.11c5.53.64,11.31,1.06,17.21,1.59,26.2,2.23,55.91,4.67,79.63,18.26,32.62,18.16,47.51,67.11,50.85,107.36-2.43,0-7.19.1-14,.21C626.31,686.52,526.23,691,387,691Z" transform="translate(0.5 0.5)"/><path id="SvgjsPath3269" class="cls-2" d="M678.67,686c-1.17,0-4.13-1.07-6.2-1.07-8.25-38.62-17.16-72.79-48.57-99.52-28.64-20.16-78.57-13.65-115.59-25.17-35.09,33.49-79.35,53.22-118.39,67.09,38.7-20.7,98.17-53.44,118.69-74,15.74,3.1,91.21,8.53,117.4,23.58C658.8,595.26,675.31,645.6,678.67,686ZM252.79,554.94c0-.12-71.74,8-84.64,12-57,16.22-77.15,71.68-77.53,118.31.78,0,.26.52,1,.52,3-35,16.69-65.59,44.5-90.88,28-25.81,79.35-24,118.39-30.93,41.54,35.13,96,53,135.46,63.47C329.81,601.82,288.39,588,252.79,554.94Z" transform="translate(0.5 0.5)"/><path id="SvgjsPath3270" class="cls-2" d="M626.92,576.06c-29.27-16.91-66.69-16.91-97.79-20.17a1.84,1.84,0,0,0-1.29-1.17c-5.8-1.25-11.09-1.82-16.69-2.88a4.6,4.6,0,0,0-3.36.75c-32.65,27.19-80.44,53.55-117.79,73.49-2.58-1.07-5.29-2.51-8.26-3.84C342.84,605.07,293,590.53,254,554.13a4.57,4.57,0,0,0-3.75-1.06c-3.36.54-7.23,1.18-13,1.82a2.74,2.74,0,0,0-1.94,1.49c-22.19,2.13-53.79,5.22-67.47,9.49-56.64,16-78.83,72-78.83,121.66,328.66,5.7,576.34-1.63,589.67-1.63C676,650.94,662.93,596.11,626.92,576.06ZM508.37,555.39q7.88,2.15,16,3.62c-5.68,4.06-2.84.86-21.25,15.25-37.16,28.59-99.09,63.9-109,70.94,0,0-11.61-6-15.18-7.15C402.58,619.39,462.18,599.52,508.37,555.39Zm-255.19,1.25c25.67,31.46,84.24,52.06,127.21,68.16,2.58,1,5,1.92,7.34,2.67-1.92,1.07-11,7.53-12.64,8.85-86.3-31.89-111.72-50.78-136.75-76.9.77-.27,14.07-2.68,14.84-2.78ZM90.62,685.29c3.87-29.66,10.07-56.33,32.52-83.75,25.54-31.78,59.86-35.62,113.53-41.91,33.15,34.13,42.83,39.47,74.37,53.12,46.7,20.37,62.7,25.39,83.21,34.13,19.23-12.16,76-40,120.37-78.08,7.09-6.08,6.32-5.33,11.61-9.5,83.92,11.64,125.45,2.19,152.77,128.6C477.88,684.65,289.43,681.87,90.62,685.29Z" transform="translate(0.5 0.5)"/></g><g id="svga-group-head"><g id="svga-group-ears-left-move"><g id="svga-group-ears-left"><path id="SvgjsPath2927" class="cls-10" d="M236.79,340.8c-4-5.65-17.15-21.12-27.22-18.83-8.13,1.81-8.13,11.41-8.77,17.07-.91,8.32-1.29,22.93,1.41,28.86,2.58,5.65,10.72,16.64,15.88,20.8,6.19,5.12,16.25,21.44,17.41,23.15,1.94,2.66,5.81,6.5,11.75,6.19,8.37-.43,15.6-7,16.25-10.24C267.11,390.34,247.37,355.57,236.79,340.8Z" transform="translate(0.5 0.5)"/></g></g><g id="svga-group-ears-right-move"><g id="svga-group-ears-right"><path id="SvgjsPath2929" class="cls-10" d="M531.33,340.8c4-5.65,17.15-21.12,27.22-18.83,8.13,1.81,8.13,11.41,8.77,17.07.91,8.32,1.29,22.93-1.41,28.86-2.58,5.65-10.72,16.64-15.88,20.8-6.19,5.12-16.25,21.44-17.41,23.15-1.94,2.66-5.81,6.5-11.74,6.19-8.38-.43-15.61-7-16.26-10.24C501.14,390.34,520.88,355.57,531.33,340.8Z" transform="translate(0.5 0.5)"/></g></g><g id="svga-group-faceshape-wrap"><g id="svga-group-faceshape-single"><path id="SvgjsPath3068" class="cls-5" d="M504,438.68c-13.55,23.47-54.44,65.17-83.73,76.26-14.58,5.55-57.29,5.76-71.74,0-28.83-11.62-70-52.91-83.72-76.26-15.18-26-40.39-111.36-40.39-111.47A123.23,123.23,0,0,1,219,291.36c-.12-78,73.8-141.24,165.14-141.31S549.65,213,549.77,290.93a122.77,122.77,0,0,1-5.28,35.84C544.49,326.88,519.21,412.43,504,438.68Z" transform="translate(0.5 0.5)"/><path id="SvgjsPath3069" class="cls-11" d="M412,152c73.28,14.51,128,70.62,127.86,137.61a123.22,123.22,0,0,1-5.42,35.84c0,.11-23.36,85.44-38.45,111.47-13.16,22.93-53.54,62.94-81.67,74.56-5.93,2.51-23.6,3.52-29.93,3.52s-24-1.18-29.93-3.52C326.32,499.9,286,459.89,272.79,437c-15-26-38.32-111.36-38.45-111.47a122.2,122.2,0,0,1-5.41-35.84c-.14-67,54.44-123.1,127.84-137.61C278.47,163.25,218.86,221.38,219,291.47a123.22,123.22,0,0,0,5.42,35.84c0,.1,25,85.33,40.39,111.46,13.66,23.36,55,64.43,83.72,76.27,7.23,3,25.29,4.27,35.23,4.27S413,518.05,420.17,515c28.84-11.84,69.92-52.91,83.74-76.27,15.34-26,40.37-111.36,40.37-111.46a122.55,122.55,0,0,0,5.42-35.84C550,221.38,490.31,163.25,412,152Z" transform="translate(0.5 0.5)"/><path id="SvgjsPath3070" class="cls-8" d="M504,438.68c-13.55,23.47-54.44,65.17-83.73,76.26-14.58,5.55-57.29,5.76-71.74,0-28.83-11.62-70-52.91-83.72-76.26-15.18-26-40.39-111.36-40.39-111.47A123.23,123.23,0,0,1,219,291.36c-.12-78,73.8-141.24,165.14-141.31S549.65,213,549.77,290.93a124.23,124.23,0,0,1-5.54,36.69c-5.67,18.67-12,38.51-14.07,44.37C519.33,404.63,514.05,421.49,504,438.68Z" transform="translate(0.5 0.5)"/></g></g><g id="svga-group-mouth-single-move"><g id="svga-group-mouth-single"><path id="SvgjsPath3035" class="cls-12" d="M374.19,466.72l22.57-.43C394.18,476.43,376,475.07,374.19,466.72Z" transform="translate(0.5 0.5)"/><path id="bouche" class="cls-13" d="M375.44,467.36c-1-.11-.91-1.26.26-1.26.12,0,11.73,1.26,21.41-.53,1-.21,1.42,1.07.38,1.17A83.06,83.06,0,0,1,375.44,467.36Zm10.18-8.52c-4.12,0-10.62.53-14.57,0-4.55-.64-10.83-1.49-15.36-1.18s-12.64-1.71-15.48-3.2c-1.52-.85-8.77-3.77-7.09-4.27S343.31,452,345,452.33c7.74,1.18,16.26.85,23.09.75,10.46-.21,19.73,2.35,32.77.21,14.07-2.34,12.14.43,22.19-2.13,2.84-1.07,8-1.61,9.54-1s7.11,1.4,5.3,2c-9.29,3.41-15.1,3.76-25.28,5.22-3.77.42-22.8,1.39-26.93,1.39Z" transform="translate(0.5 0.5)"/></g></g><g id="svga-group-eyes-left-move"><g id="svga-group-eyes-left"><g id="svga-group-eyesback-left"><path id="SvgjsPath3129" class="cls-14" d="M321.3,327.19c12.51,1.61,21.54,8,29.28,18.25h0c0,.1,0,.1.13.21.64,2.35-2.2,4.16-5.81,5.55-12.9,1.38-25.41,3.41-38.57,2-26.31-2.87-26.83-12.55-28-15.15a17.87,17.87,0,0,1-.89-5.64,51.05,51.05,0,0,1,15.86-4.6A112.12,112.12,0,0,1,321.3,327.19Z" transform="translate(0.5 0.5)"/></g><g id="svga-group-eyesiriswrapper-left"><g id="svga-group-eyesiriscontrol-left"><g id="svga-group-eyesiris-left"><path id="SvgjsPath3187" class="cls-15" d="M330.13,340.11c0,8.82-10.27,15.66-21.46,12.77-6.67-1.71-11.05-7-11.05-12.76h0c-.09-7.52,7.17-13.68,16.25-13.81,9,.05,16.32,6.14,16.26,13.61v.2Z" transform="translate(0.5 0.5)"/><path id="SvgjsPath3188" class="cls-16" d="M312.71,327.07h-.12c.12.32.12.64.26,1A2.27,2.27,0,0,1,312.71,327.07Zm0,.34c.14,4.48.51,8.53,1.43,10C314.73,335.84,313.74,331.79,312.71,327.41Zm1.6,10c-.13.42-.25.64-.51.75a1.36,1.36,0,0,1-1-.21c.12.42.12.64-.14.85s-.52.21-1,.21c.26.32.51.53.39.86a1.26,1.26,0,0,1-.77.52c.38.12.77.33.77.54a1.55,1.55,0,0,1-.39.86c.51,0,.77,0,1,.21a1,1,0,0,1,.14.85,1.27,1.27,0,0,1,1-.21c.26.1.38.31.51.74a2.24,2.24,0,0,1,.78-.64,1.14,1.14,0,0,1,.89.43,1,1,0,0,1,.4-.86,1.81,1.81,0,0,1,1,0,.77.77,0,0,1-.14-.85c.14-.21.52-.31.91-.43-.39-.21-.65-.42-.65-.74s.26-.42.65-.75a1,1,0,0,1-.91-.43,1.07,1.07,0,0,1,.14-.85c-.39.11-.77.21-1,0a1,1,0,0,1-.4-.85,1.17,1.17,0,0,1-.89.42c-.4.1-.52-.11-.78-.44Zm1.52.11c1.29-1.18,2.84-5,4.27-9.39-2.31,4-4.27,7.77-4.27,9.38Zm4.56-9.39c.12-.32.37-.54.51-.85-.07,0-.14-.05-.14-.11a2.85,2.85,0,0,0-.37,1ZM317,338.41c1.81-.54,5.3-3.41,8.91-6.61-4.2,2.65-7.93,5.11-8.84,6.6Zm9-6.72c.25-.22.51-.32.77-.53l-.12-.11a8.32,8.32,0,0,1-.59.62Zm-8.26,8c1.94.22,6.59-1,11.61-2.34-5.22.62-9.87,1.36-11.55,2.33Zm12.29-2.51c.26,0,.65-.1.91-.1V337c-.2.09-.59.09-.85.19ZM317.81,341c1.52,1,6.33,1.71,11.61,2.51-5-1.48-9.61-2.73-11.55-2.47Zm10.91,2.51c.26.1.51.1.77.22v-.12a1.89,1.89,0,0,0-.71-.11ZM317,342.28c.92,1.49,4.65,3.94,8.91,6.71-3.55-3.17-7-6.11-8.84-6.75Zm8.91,6.71.52.43.12-.1A2.75,2.75,0,0,0,326,349Zm-10.2-5.86c0,1.59,1.95,5.33,4.27,9.39-1.49-4.42-2.91-8.26-4.2-9.43Zm4.13,9.77c0,.21.14.31.14.53h.12c.06-.26-.06-.36-.2-.57Zm-5.8-9.67c-.91,1.49-1.29,5.45-1.42,10,1.09-4.42,1.87-8.47,1.49-10.08Zm-1.27,9.66c0,.21-.14.32-.14.54h.14Zm-.24-10.07c-1.69,1-4.13,4.38-6.85,8.32,3.39-3.57,6.36-6.77,6.88-8.37ZM305.71,351c-.12.1-.26.31-.38.42a.11.11,0,0,1,.12.1h0c0-.26.17-.36.29-.57Zm5.68-9.29c-1.93.21-6.07,2.25-10.63,4.69,5-1.88,9.41-3.56,10.66-4.74Zm-10,4.59a2.26,2.26,0,0,1-.78.22v.1a1,1,0,0,0,.85-.37Zm9.53-6c-1.8-.64-6.58-.43-12,0,5.49.26,10.27.43,12.08-.05Zm-12.43.51a2.54,2.54,0,0,1-.91-.12v.12Zm12.81-1.9c-1.29-1.26-5.67-2.88-10.62-4.7,4.64,2.41,8.77,4.43,10.7,4.65Zm-10.62-4.7a7.36,7.36,0,0,0-.9-.42.12.12,0,0,1-.13.11,5,5,0,0,1,1.15.26Zm11.75,3.63c-.52-1.59-3.36-4.79-6.71-8.32,2.7,3.9,5.14,7.44,6.83,8.27Zm-6.85-8.21a9.19,9.19,0,0,1-.52-.85l-.12.1a1.91,1.91,0,0,1,.76.7Z" transform="translate(0.5 0.5)"/><path id="SvgjsPath3192" class="cls-17" d="M317,327.07h-.13a2.62,2.62,0,0,1-.12,1A2.53,2.53,0,0,1,317,327.07Zm-.25.34c-1.17,4.38-2.2,8.32-1.69,9.92C315.94,335.94,316.32,331.89,316.72,327.41Zm-2.41,10c-.25.32-.51.54-.77.54a1.25,1.25,0,0,1-.91-.43.93.93,0,0,1-.38.85,1.81,1.81,0,0,1-1,0,.75.75,0,0,1,.12.86,1.12,1.12,0,0,1-.9.31c.38.21.64.43.64.75s-.26.43-.64.64c.52.1.78.22.9.43s0,.53-.12.85a1.65,1.65,0,0,1,1,0c.26.1.38.43.26.86a1.14,1.14,0,0,1,.89-.43c.26,0,.51.21.78.64.13-.43.26-.64.65-.75a1.36,1.36,0,0,1,1,.21c-.13-.43-.13-.64.12-.85s.52-.22,1-.22c-.26-.31-.52-.52-.38-.85a1.18,1.18,0,0,1,.77-.53c-.39-.11-.77-.32-.77-.54a1.5,1.5,0,0,1,.38-.85c-.52,0-.78,0-1-.21a1,1,0,0,1-.12-.86,1.28,1.28,0,0,1-1,.22,1.05,1.05,0,0,1-.52-.66Zm2.12.54c1.67-.86,4.25-4.27,7-8.11-3.46,3.29-6.42,6.49-6.93,8.09Zm7-8.22a6.12,6.12,0,0,0,.78-.74l-.14-.12a4.5,4.5,0,0,1-.61.84Zm-5.81,9.28c1.94-.21,6.07-2.13,10.72-4.48-5,1.58-9.4,3.19-10.69,4.47Zm10.63-4.48c.25-.11.65-.21.91-.32a.12.12,0,0,0-.12-.11h0c-.25.13-.52.26-.79.37Zm-10.33,5.86c1.81.64,6.59.54,12,.22-5.31-.54-10.08-.87-12-.23Zm12.23.22c.26,0,.64.11.9.11v-.11a2.19,2.19,0,0,0-.88,0Zm-12.6,1.06c1.29,1.26,5.54,3,10.44,4.91-4.53-2.57-8.53-4.71-10.46-4.92ZM328,346.62a1.33,1.33,0,0,1,.65.43c0-.06,0-.1.12-.1h0Zm-11.61-3.84c.39,1.61,3.23,4.91,6.58,8.43-2.59-4-5.05-7.48-6.6-8.44Zm6.58,8.43c.13.22.26.32.38.53,0,0,.14,0,.14-.1a1.92,1.92,0,0,1-.53-.44Zm-8.19-8c-.52,1.61.26,5.55,1.17,10C315.81,348.74,315.68,344.69,314.73,343.19Zm1.1,9.7v.54H316a5.35,5.35,0,0,1-.07-.56Zm-2.77-9.9c-1.29,1.18-2.84,5-4.56,9.39,2.54-4.05,4.6-7.69,4.6-9.4Zm-4.56,10c-.12.11-.12.33-.25.43h.13c.08-.12.28-.33.28-.44Zm3.24-10.75c-1.81.53-5.3,3.3-9.11,6.5,4.4-2.67,8.15-5.13,9.18-6.51Zm-9.11,6.5c-.12.12-.38.22-.52.33l.14.1a1.58,1.58,0,0,1,.34-.44ZM311,341c-1.94-.21-6.58.86-11.61,2.14,5.3-.56,9.94-1.3,11.63-2.15Zm-11.11,2.14c-.26,0-.52.1-.77.1v.1a2.45,2.45,0,0,0,.79-.22ZM311,339.58c-1.51-.95-6.33-1.81-11.49-2.66,5.06,1.48,9.57,2.76,11.51,2.62Zm-11.11-2.67a1.85,1.85,0,0,0-.77-.22v.1C299.39,336.79,299.65,336.91,299.91,336.91Zm12,1.38c-.89-1.5-4.55-4.06-8.77-6.83C306.77,334.77,310.17,337.65,311.93,338.29Zm-8.77-6.83a2.78,2.78,0,0,1-.64-.64l-.13.11A6.89,6.89,0,0,0,303.16,331.46Zm10.06,5.65c0-1.6-1.8-5.33-4-9.5,1.41,4.38,2.84,8.22,4,9.5Zm-3.87-9.18a6.5,6.5,0,0,0-.25-.86H309A1.29,1.29,0,0,0,309.35,327.93Z" transform="translate(0.5 0.5)"/><path id="SvgjsPath3196" class="cls-15" d="M320.8,340.46c0,3-2.83,5.4-6.42,5.44h0a6.51,6.51,0,0,1-5.73-2.89c-2.28-4,1.17-7.88,5.73-7.88C317.91,335.13,320.8,337.52,320.8,340.46Z" transform="translate(0.5 0.5)"/><path id="SvgjsPath3197" class="cls-18" d="M320.8,340.46c0,3-2.83,5.4-6.42,5.44h0a6.51,6.51,0,0,1-5.73-2.89c-2.28-4,1.17-7.88,5.73-7.88C317.91,335.13,320.8,337.52,320.8,340.46Z" transform="translate(0.5 0.5)"/><path id="SvgjsPath3198" class="cls-19" d="M305.62,346.39a3.08,3.08,0,0,1,3.73.64,2,2,0,0,1-.76,3.1h0a3,3,0,0,1-3.65-.54.39.39,0,0,1-.08-.1,2,2,0,0,1,.76-3.09Z" transform="translate(0.5 0.5)"/><path id="SvgjsPath3202" class="cls-20" d="M319.55,339.35c-.65.86-2.58.76-4.38-.21s-2.58-2.51-1.95-3.3h0c.66-.85,2.59-.75,4.39.21S320.19,338.4,319.55,339.35Z" transform="translate(0.5 0.5)"/><path id="SvgjsPath3206" class="cls-21" d="M327.29,337c-1.51,2-5.55,2.13-8.9.33s-4.91-5-3.36-6.94,5.56-2.14,8.91-.32S328.84,335,327.29,337Z" transform="translate(0.5 0.5)"/></g></g></g><g id="oeildroit"><path id="SvgjsPath3154" class="cls-5" d="M262.47,338.71c8.77,25.93,20.25,53.45,48,54.3s60.12-16.64,60.5-51c.52-38.4-28.5-53.66-56.25-54.4S249.46,300.1,262.47,338.71Zm15.74-1.06a17.63,17.63,0,0,1-.91-5.65c5.55-2.77,11-3.53,15.87-4.38a116.5,116.5,0,0,1,28-.74c12.52,1.59,21.56,8,29.3,18.23h0c0,.12,0,.12.12.22.65,2.34-2.19,4.16-5.8,5.54-12.9,1.4-25.42,3.42-38.58,2-26.38-2.89-26.7-12.7-28-15.26Z" transform="translate(0.5 0.5)"/><path id="SvgjsPath3155" class="cls-22" d="M314.45,365.38c25.17,3.2,48.57-6.93,52.13-22.59s-13.8-31-39-34.23-48.57,6.92-52.12,22.59S289.3,362.13,314.45,365.38ZM277.3,332a59.7,59.7,0,0,1,15.87-4.38,116.5,116.5,0,0,1,28-.74c12.52,1.6,21.56,8,29.3,18.24h0c0,.11,0,.11.12.21.65,2.35-2.19,4.17-5.8,5.55-12.9,1.39-25.42,3.41-38.58,2-26.32-2.89-26.84-12.55-28-15.15A15.8,15.8,0,0,1,277.3,332Z" transform="translate(0.5 0.5)"/><path id="SvgjsPath3160" class="cls-23" d="M278.21,337.65a17.63,17.63,0,0,1-.91-5.65,58.14,58.14,0,0,1,15.87-4.38,116.5,116.5,0,0,1,28-.74c12.52,1.59,21.56,8,29.3,18.23h0c0,.12,0,.12.12.22.65,2.34-2.19,4.16-5.8,5.54-12.9,1.4-25.42,3.42-38.58,2C279.82,350,279.5,340.21,278.21,337.65Z" transform="translate(0.5 0.5)"/><path id="SvgjsPath3164" class="cls-13" d="M320.13,320.79c8.91,1.26,17.68,4.7,25.8,9.08a60.91,60.91,0,0,0,6.85,3.3,25.93,25.93,0,0,1-6.33-2.35,46.32,46.32,0,0,1,5.42,5.33C345,328.9,332,323.47,321,321.65c-10.62-1.81-29.81-.64-44.12,4.69C289.94,320.15,309,319.3,320.13,320.79Z" transform="translate(0.5 0.5)"/><path id="SvgjsPath3165" class="cls-24" d="M350.58,344.9c-7.74-9.91-16.77-16.21-29.28-17.81-13.16-1.6-30.58-.54-41,4.27-.78.43-4.39,2.87-3.87.31,2.32-2.66,11.75-5.76,16.25-6.71C343.75,314.51,353.42,348.53,350.58,344.9Zm-73-7.87c-1.93,4.69,2.32,15.26,27.61,17.18,17.94,1.38,42.83-4,39.73-3.76-13,1.39-25.41,3.31-38.57,1.92C276.4,349.28,279.82,337.43,277.56,337Z" transform="translate(0.5 0.5)"/></g></g></g><g id="svga-group-eyes-right-move"><g id="svga-group-eyes-right"><g id="svga-group-eyesback-right"><path id="SvgjsPath3137" class="cls-25" d="M446.56,327.19c-12.5,1.61-21.53,8-29.27,18.25h0c0,.1,0,.1-.14.21-.64,2.35,2.2,4.16,5.81,5.55,12.9,1.38,25.41,3.41,38.57,2,26.32-2.87,26.83-12.55,28-15.15a17.61,17.61,0,0,0,.9-5.64,51.13,51.13,0,0,0-15.86-4.6A112.2,112.2,0,0,0,446.56,327.19Z" transform="translate(0.5 0.5)"/></g><g id="svga-group-eyesiriswrapper-right"><g id="svga-group-eyesiriscontrol-right"><g id="svga-group-eyesiris-right"><path id="SvgjsPath3210" class="cls-15" d="M470.76,340.11c0,7.42-7.28,13.44-16.26,13.44s-16.25-6-16.25-13.44h0c0-7.43,7.27-13.44,16.25-13.44S470.76,332.68,470.76,340.11Z" transform="translate(0.5 0.5)"/><path id="SvgjsPath3211" class="cls-26" d="M452.56,327.07h-.12c.12.32.12.64.26,1A2.27,2.27,0,0,1,452.56,327.07Zm.14.34c.12,4.48.51,8.53,1.41,10C454.5,335.84,453.73,331.79,452.7,327.41Zm1.25,10c-.13.42-.26.64-.51.75a1.39,1.39,0,0,1-1-.21c.13.42.13.64-.13.85s-.52.21-1,.21c.25.32.51.53.39.86a1.29,1.29,0,0,1-.77.52c.38.12.77.33.77.54a1.62,1.62,0,0,1-.39.86c.51,0,.77,0,1,.21a.93.93,0,0,1,.13.85,1.3,1.3,0,0,1,1-.21c.25.1.38.31.51.74a2.15,2.15,0,0,1,.78-.64,1.16,1.16,0,0,1,.89.43,1,1,0,0,1,.4-.86,1.81,1.81,0,0,1,1,0,.75.75,0,0,1-.14-.85c.14-.21.52-.31.91-.43-.39-.21-.65-.42-.65-.74s.26-.42.65-.75a1,1,0,0,1-.91-.43,1,1,0,0,1,.14-.85c-.4.11-.78.21-1,0a1,1,0,0,1-.4-.85,1.17,1.17,0,0,1-.89.42c-.26.1-.52-.11-.78-.44Zm1.52.11c1.29-1.18,2.84-5,4.26-9.39-2.32,4-4.26,7.77-4.26,9.38Zm4.45-9.39c.12-.32.38-.54.52-.85a.13.13,0,0,1-.14-.11ZM457,338.41c1.8-.54,5.28-3.41,8.89-6.61-4.25,2.65-8,5.11-8.89,6.6Zm9.1-6.72c.26-.22.52-.32.78-.53l-.12-.11a3,3,0,0,1-.66.62Zm-7.58,8c1.92.22,6.57-1,11.61-2.34-5.3.62-10.07,1.36-11.61,2.33Zm11.24-2.51c.26,0,.64-.1.9-.1V337a4.19,4.19,0,0,0-.82.19ZM458.51,341c1.51,1,6.31,1.71,11.61,2.51-5.16-1.48-9.69-2.73-11.61-2.47Zm11.36,2.51c.26.1.52.1.78.22v-.12a2.33,2.33,0,0,0-.7-.11ZM457,342.28c.89,1.49,4.64,3.94,8.89,6.71-3.73-3.17-7.06-6.11-8.89-6.75Zm9.1,6.71.52.43.14-.1a3,3,0,0,1-.66-.37Zm-10.62-5.86c0,1.59,1.94,5.33,4.26,9.39-1.54-4.42-3-8.26-4.26-9.43ZM460,352.9c0,.21.12.31.12.53h.14c-.14-.26-.26-.36-.26-.57ZM454,343.23c-.91,1.49-1.29,5.45-1.42,10,1-4.42,1.94-8.47,1.42-10.08Zm-1.52,9.66c0,.21-.12.32-.12.54h.12Zm0-10.07c-1.68,1-4.12,4.38-6.84,8.32,3.49-3.57,6.45-6.77,6.84-8.37ZM444.85,351c-.13.1-.26.31-.38.42a.12.12,0,0,1,.12.1c.13-.26.26-.36.26-.57Zm6.07-9.29c-1.95.21-6.07,2.25-10.63,4.69,4.95-1.88,9.34-3.56,10.63-4.74Zm-9.85,4.59a2.26,2.26,0,0,1-.78.22v.1a1.17,1.17,0,0,0,.82-.37Zm9.9-6c-1.81-.64-6.58-.43-12,0,5.33.26,10.11.43,12-.05Zm-11.29.51a2.54,2.54,0,0,1-.91-.12v.12Zm11.68-1.9c-1.29-1.26-5.68-2.88-10.62-4.7,4.59,2.41,8.72,4.43,10.67,4.65Zm-10.62-4.7a7,7,0,0,0-.92-.42.11.11,0,0,1-.12.11c.38.07.76.16,1.13.26Zm11.61,3.63c-.52-1.59-3.36-4.79-6.71-8.32,2.79,3.9,5.25,7.44,6.8,8.27Zm-6.71-8.21a5,5,0,0,1-.52-.85l-.13.1a2.82,2.82,0,0,1,.74.7Z" transform="translate(0.5 0.5)"/><path id="SvgjsPath3215" class="cls-27" d="M456.82,327.07h-.13a2.62,2.62,0,0,1-.12,1C456.69,327.71,456.69,327.39,456.82,327.07Zm-.25.34c-1.17,4.38-2.2,8.32-1.69,9.92.91-1.39,1.43-5.44,1.69-9.92Zm-1.1,10c-.26.32-.52.54-.77.54a1.23,1.23,0,0,1-.9-.43,1,1,0,0,1-.39.85,1.84,1.84,0,0,1-1,0,.75.75,0,0,1,.14.86,1.16,1.16,0,0,1-.91.31c.39.21.65.43.65.75s-.26.43-.65.64c.52.1.77.22.91.43a1,1,0,0,1-.14.85,1.68,1.68,0,0,1,1,0c.25.1.39.43.25.86a1.19,1.19,0,0,1,.91-.43c.26,0,.52.21.78.64.12-.43.26-.64.64-.75a1.28,1.28,0,0,1,1,.21c-.12-.43-.12-.64.13-.85s.52-.22,1-.22c-.26-.31-.52-.52-.4-.85a1.37,1.37,0,0,1,.78-.53c-.38-.11-.78-.32-.78-.54a1.6,1.6,0,0,1,.4-.85c-.52,0-.78,0-1-.21a1,1,0,0,1-.13-.86,1.33,1.33,0,0,1-1,.22c-.26,0-.38-.33-.52-.66Zm.93.54c1.68-.86,4.26-4.27,7-8.11-3.45,3.29-6.42,6.49-6.94,8.09Zm7.07-8.24a5,5,0,0,0,.78-.74l-.13-.11A4.79,4.79,0,0,1,463.47,329.75ZM457.4,339c1.94-.21,6.07-2.13,10.72-4.48C463.14,336.15,458.75,337.76,457.4,339Zm10.78-4.52c.26-.11.63-.21.89-.32,0-.06-.05-.1-.12-.1A5.19,5.19,0,0,0,468.18,334.52Zm-9.67,5.86c1.8.64,6.57.54,12,.22-5.42-.49-10.19-.82-12-.18Zm10.62.22c.85,0,1.23.11,1.52.11v-.11a12.09,12.09,0,0,0-1.52,0Zm-11.67,1.06c1.29,1.26,5.56,3,10.46,4.91-4.45-2.52-8.52-4.66-10.52-4.87Zm10.32,4.91a1.32,1.32,0,0,1,.66.43c0-.06.05-.1.12-.1ZM457,342.73c.38,1.61,3.22,4.91,6.57,8.43-2.58-3.91-5-7.43-6.57-8.39Zm6.07,8.43c.14.22.26.32.39.53l.13-.1c-.26-.08-.38-.29-.52-.39Zm-7.59-8c-.52,1.6.26,5.54,1.15,10-.12-4.45-.38-8.5-1.15-10Zm0,9.73v.54h.14a.68.68,0,0,1-.17-.52Zm-3-9.94c-1.29,1.18-2.83,5-4.55,9.39,2.49-4,4.43-7.65,4.55-9.36Zm-3.91,8.79c-.13.12-.13.33-.26.43h.13a1.22,1.22,0,0,0,.18-.4Zm3-9.53c-1.81.53-5.3,3.3-9.11,6.5,4.57-2.63,8.3-5.09,9.21-6.47Zm-9.11,6.5c-.14.12-.39.22-.52.33l.13.1a1.34,1.34,0,0,1,.57-.4Zm8.38-7.78c-1.93-.21-6.57.86-11.61,2.14,5.34-.52,10.12-1.26,11.79-2.11Zm-11.28,2.14c-.26,0-.52.1-.78.1v.14a1.75,1.75,0,0,0,1-.22Zm11.28-3.45c-1.52-.95-6.32-1.81-11.48-2.66,5.21,1.52,9.73,2.8,11.66,2.66Zm-11.28-2.74a2.05,2.05,0,0,0-.78-.21v.1a5.3,5.3,0,0,0,1,.14Zm12.05,1.38c-.89-1.49-4.55-4.05-8.77-6.83,3.79,3.34,7.15,6.22,9,6.86Zm-8.77-6.83a2.78,2.78,0,0,1-.64-.64l-.13.12a6.18,6.18,0,0,1,.95.55Zm10.2,6.09c0-1.61-1.81-5.33-4-9.5,1.61,4.41,2.9,8.25,4.19,9.53Zm-4-9.59a5.31,5.31,0,0,0-.26-.86h-.12a2.61,2.61,0,0,1,.56.88Z" transform="translate(0.5 0.5)"/><path id="SvgjsPath3219" class="cls-15" d="M460.82,340.46c0,3-2.84,5.4-6.42,5.44h0c-3.58-.06-6.45-2.48-6.46-5.44s2.89-5.33,6.46-5.33S460.82,337.52,460.82,340.46Z" transform="translate(0.5 0.5)"/><path id="SvgjsPath3220" class="cls-18" d="M460.82,340.46c0,3-2.84,5.4-6.42,5.44h0c-3.58-.06-6.45-2.48-6.46-5.44s2.89-5.33,6.46-5.33S460.82,337.52,460.82,340.46Z" transform="translate(0.5 0.5)"/><path id="SvgjsPath3221" class="cls-28" d="M445.47,346.39a3.08,3.08,0,0,1,3.73.64,2,2,0,0,1-.76,3.1h0a3,3,0,0,1-3.65-.54.39.39,0,0,1-.08-.1A2.08,2.08,0,0,1,445.47,346.39Z" transform="translate(0.5 0.5)"/><path id="SvgjsPath3225" class="cls-29" d="M459.53,339.35c-.64.86-2.58.76-4.39-.21s-2.58-2.51-1.93-3.3h0c.64-.85,2.58-.75,4.39.21S460.18,338.4,459.53,339.35Z" transform="translate(0.5 0.5)"/><path id="SvgjsPath3229" class="cls-30" d="M467.27,337c-1.52,2-5.54,2.13-8.9.33s-4.9-5-3.35-6.94,5.54-2.14,8.89-.32S468.81,335,467.27,337Z" transform="translate(0.5 0.5)"/></g></g></g><g id="oeilgauche"><path id="SvgjsPath3175" class="cls-5" d="M452.85,287.94c-27.75.85-56.65,16-56.25,54.4.38,34.35,32.77,51.84,60.5,51s44-39.68,48-54.29C516.23,300,480.62,287.2,452.85,287.94Zm8.77,65.49c-13.16,1.38-25.54-.64-38.58-2-3.61-1.38-6.57-3.3-5.8-5.54,0-.1,0-.1.12-.22h0c7.74-10.24,16.77-16.64,29.29-18.23a116.47,116.47,0,0,1,28,.74c4.91.85,10.46,1.61,15.88,4.38a14.83,14.83,0,0,1-.91,5.65c-1.25,2.67-1.63,12.48-27.94,15.26Z" transform="translate(0.5 0.5)"/><path id="SvgjsPath3176" class="cls-31" d="M492.31,331.46c-3.61-15.67-27-25.81-52.12-22.59s-42.5,18.56-39,34.25,26.95,25.81,52.12,22.59S496,347.15,492.31,331.46Zm-2.72,6.91c-1.29,2.51-1.8,12.37-28,15.14-13.16,1.38-25.55-.64-38.59-2-3.61-1.38-6.57-3.3-5.8-5.55,0-.1,0-.1.13-.21h0c7.74-10.24,16.77-16.64,29.29-18.23a116.5,116.5,0,0,1,28,.74,59.7,59.7,0,0,1,15.87,4.38,14.78,14.78,0,0,1-.85,5.76Z" transform="translate(0.5 0.5)"/><path id="SvgjsPath3181" class="cls-32" d="M489.65,338a17.12,17.12,0,0,0,.91-5.66A58.83,58.83,0,0,0,474.69,328a116.5,116.5,0,0,0-28-.76c-12.52,1.61-21.55,8-29.29,18.25h0c0,.1,0,.1-.12.21-.66,2.35,2.18,4.16,5.79,5.55,12.9,1.38,25.43,3.41,38.59,2C488,350.35,488.36,340.53,489.65,338Z" transform="translate(0.5 0.5)"/><path id="SvgjsPath3185" class="cls-13" d="M447.73,321.12c-8.91,1.25-17.68,4.69-25.8,9.06a57,57,0,0,1-6.85,3.31,26.33,26.33,0,0,0,6.33-2.34,44,44,0,0,0-5.41,5.33c6.83-7.25,19.86-12.7,30.82-14.51,10.63-1.82,29.81-.64,44.12,4.7C477.92,320.48,458.83,319.63,447.73,321.12Z" transform="translate(0.5 0.5)"/><path id="SvgjsPath3186" class="cls-24" d="M475,325.27c4.55,1,13.93,4.06,16.25,6.73.52,2.51-3,.1-3.87-.33-10.18-4.69-27.73-5.86-40.89-4.26-12.52,1.49-21.55,7.79-29.29,17.82C414.45,348.85,424,314.93,475,325.27Zm-13.28,27.52c-13.16,1.4-25.69-.52-38.59-1.92-3-.31,21.81,5.12,39.74,3.77,25.29-1.92,29.55-12.49,27.61-17.18C488.11,337.86,491.46,349.71,461.67,352.79Z" transform="translate(0.5 0.5)"/></g></g></g><g id="svga-group-facehighlight-single"><path id="SvgjsPath2906" class="cls-33" d="M495.85,408.8c.13,51.84-49.67,94-111.21,94.12S273.17,461,273.05,409.15,322.71,315,384.26,315C445.79,314.72,495.73,357,495.85,408.8Z" transform="translate(0.5 0.5)"/><path id="SvgjsPath2910" class="cls-34" d="M486.24,271.3c0,47.47-45.67,86-101.92,86s-101.92-38.5-101.92-86,45.67-86,101.92-86S486.24,223.84,486.24,271.3Z" transform="translate(0.5 0.5)"/></g><g id="svga-group-eyebrows-left-move"><g id="svga-group-eyebrows-left-rotate"><g id="svga-group-eyebrows-left"><path id="SvgjsPath3237" class="cls-4" d="M255.37,316.85c20.26-21.54,55.21-17.92,83.85-14.5a217.23,217.23,0,0,1,21.94,3.08c5.16,1.07,9.1,6,5,10-1.95,1.92-6.08,1.5-8.78,1.5C323.23,316.31,284.37,299.67,255.37,316.85Z" transform="translate(0.5 0.5)"/></g></g></g><g id="svga-group-eyebrows-right-move"><g id="svga-group-eyebrows-right-rotate"><g id="svga-group-eyebrows-right"><path id="SvgjsPath3238" class="cls-4" d="M513.79,316a53.57,53.57,0,0,0-19.1-6.58c-25.8-3.52-75,11-87.86,7.9-7.86-1.92-6.32-8.54-2.84-10.24,2.06-1,2.72-1,21.55-3.77C457.4,298.72,493.15,295,513.79,316Z" transform="translate(0.5 0.5)"/></g></g></g><g id="svga-group-nose-single-move"><g id="svga-group-nose-single"><path id="SvgjsPath3044" class="cls-7" d="M360.38,412.33c-2.32,4.69,16.14,9.81,23.1,10.14,7.59.31,28.84-6.62,25.29-11.42-3.75-5-18.06-.64-24.28-.64S363.48,405.91,360.38,412.33Z" transform="translate(0.5 0.5)"/><path id="SvgjsPath3045" class="cls-13" d="M389.54,415.84c-.64-1.71,5.16-3.63,7.22-3.84,3-.33,9.11,1.81,8.66,3.63-.52,1.59-5.82-1.18-7.74-1S390.06,417.43,389.54,415.84Zm-18.65-.54c2.58,0,6.57,1.39,7.22.21.9-1.49-5.81-3.3-7.74-3.08-1.68.21-7.48,3-6.59,4.26C364.39,417.65,367.35,415.3,370.89,415.3Z" transform="translate(0.5 0.5)"/><path id="SvgjsPath3046" class="cls-35" d="M384.77,404.21a5.41,5.41,0,0,0,4.91-5.12c.51-13.81-2.58-54.62-4.91-54.5-2.06.1-6.19,40.42-5.29,54.5C379.35,401.68,381.66,403.91,384.77,404.21Z" transform="translate(0.5 0.5)"/></g></g><g id="svga-group-beardwrap"><g id="svga-group-beard-single-move"><g id="svga-group-beard-single"><path id="SvgjsPath3259" class="cls-4" d="M383.86,520.59c-29.93-2-51.21-10.24-75.89-29.34-24.11-17.57-42.83-43.92-46.82-58.88,92.37,89.6,157.14,87.47,246.28,1.39C496.1,472.48,434.32,520.59,383.86,520.59Z" transform="translate(0.5 0.5)"/></g></g></g><g id="svga-group-hair-front"><path id="SvgjsPath3250" class="cls-4" d="M235,355.78c-6.57-20.16-10.18-37.87-15.08-56.32h.25c-1.8-3.84-8.65-34.56-8.65-34.88-6.83-40.75,13.56-43.1,13.16-60,8.65,3.63,16.91,1.81,24.51-3.1-7.86-3.41-5.41-3.94-16-9.39,7.48-1.06,11.74.43,18.06,1.07-5.42-4.58-16-13.8-22.77-12.55l-.39-.85c9.94-6.5,23.22,7,35.22,3.41.38-37.55,65.41-45.33,81.28-50.87,21-6.73,43.09,13.47,58.57,12.19-8.77,7.53-14.19-15.72-14.58-6.76,12.78-10.24,13.66,25.1,33,7,0,14.62-4.77-18.71-11-10.18,16.89-9.27,37.94-.38,70.3-4.33l.4.85c-11.8,5.73-20.9,15.54-26.9,29.09,6.19-6.27,14.83-13,24.38-14.29l.39.85c-6.07,3-17.8-22-20.52-5,11.87-11.2,30.84,14.66,43.87,11.13l.51.76c-11.87,8.2-16.69-12.64-19.35-.37,8.39-10.45,13.3-12.91,23.74-17.28-3.36,4.27-3.22,3.52-5.8,8.21,6.45,14.08,28,14.62,31.74,39.15a96.74,96.74,0,0,1,11.21-7l.78.64c-3.87,5-7,13.87-9.11,19.84,7.59-4.9,19.23-8.43,27.49-11l.51.75c-7,6-15.36,15.06-16.77,24.85a44,44,0,0,0,6.32-3.41,89,89,0,0,0,.39,9.38,67.43,67.43,0,0,0,6.19-5c-.51,74.25-5,59.41-17.16,111.15-2.19,9.06-5.94,25-8.26,32.53l-16.38,2.35c5-51.3-.25-40.16,3.48-72.42,5.42-47.69-40.25-86.73-100.63-73.93-12.25,2.51-61,2.51-73.14,0-66.79-14.08-90.71,18.82-97.93,76.27-3.48,28.26-4.39,18.66.77,70.08Z" transform="translate(0.5 0.5)"/><path id="SvgjsPath3251" class="cls-36" d="M553.07,217.24c0-3.2-.38-2.35-.38-9.39a57.06,57.06,0,0,1-6.31,3.43c1.42-9.81,9.78-18.82,16.65-24.85l-.51-.75c-8.24,2.51-19.82,6.09-27.4,11,2.06-6,5.27-14.83,9.08-19.84l-.77-.64a111.89,111.89,0,0,0-11.2,7c-3.61-24.53-25.09-25.1-31.65-39.15a44,44,0,0,1,5.79-8.21c-10.59,4.37-15.32,6.83-23.67,17.28,2.69-12.15,7.43,8.56,19.3.4l-.52-.75c-13,3.53-31.9-22.34-43.74-11.13,2.69-17,14.41,8,20.45,5l-.38-.85c-9.52,1.16-18.27,8-24.33,14.29,6.18-13.55,15.14-23.37,26.77-29.13l-.38-.85c-32.3,4-53.27-4.94-70.13,4.33,6.17-8.53,10.94,24.8,10.94,10.18-19.3,18.13-20.21-17.32-32.94-7,.38-9,5.79,14.23,14.54,6.76-15.44,1.26-37.44-18.92-58.42-12.19-15.82,5.54-80.66,13.32-80.92,50.87-12,3.76-25.22-9.91-35.13-3.41l.39.85c6.81-1.25,17.36,8,22.71,12.55-6.3-.64-10.6-2.13-18-1.07,10.6,5.45,8,6,16,9.39-7.46,5-15.82,6.73-24.45,3.1.4,16.95-19.93,19.3-13.12,60,0,.32,6.82,30.93,8.63,34.88h-.26c4.89,18.45-14.81-34.88,1.66-69.23,2.2-4.48,10.43-16.31,10.43-16.31S257.85,211,259,202.5a37.47,37.47,0,0,1-8-4.56c5.4,2.23,5.4-4.59,10.8-2.25,0-4.58-8.09-2.23-8.09-6.82,5.4,0,10.8,0,16.21,4.59-2.71-11.42,0-22.94,10.81-29.77,27.14-18.34,62.27-16,89.41-34.34-2.69,11.42-5.4,22.94-5.4,34.34,16.21-6.82,21.61-20.58,35.25-29.75,2.71,9.17-2.69,20.58-2.69,29.75,8.09-16,18.9-32.1,43.35-36.69-10.81,9.17-10.81,22.94-10.81,34.35,0-9.18,10.81-13.81,13.52-20.58v27.52c5.4-13.81,16.21-20.6,29.85-25.18-10.81,9.18-8.12,18.35-10.81,29.76,8.08-6.77,18.91-9.18,27.14-16,8.11,13.8,2.71,25.17,2.71,38.9,2.69-11.42,16.21-18.35,24.45-27.52a74.11,74.11,0,0,1,0,34.35c2.69-6.83,8.09-11.42,10.8-18.35a81.12,81.12,0,0,1-5.4,30.12c3.35-3.32,9-4.81,10.81-9.5v27.61c1.51-2.78,6.17-3.77,8.1-6.94-2.32,7.79-.64,14-.12,21.33,1-4.48,6.17-7.25,8-11.41.12-1.82.26-3.52.26-5.33a7.49,7.49,0,0,1-.26,5.33c-2.45,40.75-7.08,81.38-17,120.64,0,0,8-23.78,10-32.86C554,271.52,558.53,286.34,559,212.1A32.31,32.31,0,0,1,553.07,217.24Z" transform="translate(0.5 0.5)"/></g><g id="svga-group-glasses-single-move"><g id="svga-group-glasses-single"><path id="SvgjsPath3241" class="cls-37" d="M262.21,322.61c32.51,3.84,69.27-12.48,99.86,3.2a.57.57,0,0,1,.38.53c-.12,2.77.65,19.41.51,20.27-1.67,6.72-8.77,11.09-17.28,12.37-23,3.41-61.28,3-83.73,1.71-3.14-.16-5.77-2-6.42-4.58-1.94-9.08.38-21.12,2.58-31.05a3.5,3.5,0,0,1,4-2.46Zm139.34,7.9a75.81,75.81,0,0,0,2.18,16.31c1.69,6.73,8.77,11.09,17.29,12.37,23,3.42,61.29,3,83.74,1.71,3.21-.21,8.37-2,8.89-4.58.77-3.77-2.58-26.78-2.32-31.9a.67.67,0,0,0-.71-.64h-.07c-135.58-9.49-100.75,6.83-104.62-1.07-.26.86-4.52,6.79-4.38,7.8Z" transform="translate(0.5 0.5)"/><path id="SvgjsPath3243" d="M527.85,328.33H513.67a.63.63,0,0,0-.13-.49c-.88-3.15-4.35-5.46-8.51-5.68-35.06-2.59-58.65-2.28-92.3-.2a4.86,4.86,0,0,0-1.15.2l.12-.1-.9.2c-.26,0-.51.1-.77.1A107.28,107.28,0,0,1,395.45,324c-10.61.3-12.89.2-23.06,0a107.28,107.28,0,0,1-14.58-1.59,2.21,2.21,0,0,0-.77-.1l-.9-.2.13.1a4.94,4.94,0,0,1-1.16-.2c-33.65-2.08-57.23-2.34-92.3.2-4.16.22-7.62,2.53-8.51,5.68a.64.64,0,0,1-.13.49H239.94v6.27h12.91a48,48,0,0,0-.13,11.3h3.37s-.11-11.9,1.43-17.85c.6-2.41,3.11-4.17,6.07-4.27,17.17-1.38,31.74-1.92,46.19-1.92,13.55,0,27.09.54,45.67,1.71,5.33.24,9.48,3.9,9.43,8.32a82.62,82.62,0,0,1-1.95,15.26h3a90.25,90.25,0,0,0,1.8-15.26,9.59,9.59,0,0,0-1-4.27c1.37-.23,2.74-.41,4.13-.53,6.83-.42,21.93-.32,27.47,0a24.69,24.69,0,0,1,4.13.53,8.3,8.3,0,0,0-1,4.27,93.52,93.52,0,0,0,1.81,15.26h3a80.15,80.15,0,0,1-1.8-15.26c0-4.39,4.11-8,9.41-8.32,18.57-1.17,32.13-1.71,45.67-1.71,14.32,0,29,.64,46.18,1.92,2.93.18,5.39,1.9,6.07,4.27,1.53,5.95,1.42,17.85,1.42,17.85h2.84a55.43,55.43,0,0,0-.13-11.3h12.38v-6.27Z" transform="translate(0.5 0.5)"/></g></g></g></g></g><polygon class="cls-4" points="519.27 358.38 485.98 454.99 508.44 434.29 535.57 356.88 519.27 358.38"/></g><polyline class="cls-4" points="260.89 435.92 235.19 355.89 251.59 357.77 284.42 457.13"/><polyline class="cls-4" points="296.86 465.79 276.07 435.17 283.66 456.12"/></g><text class="cls-38" transform="translate(139.59 661.41)">Qui suis-<tspan class="cls-39" x="355.59" y="0">j</tspan><tspan x="379.49" y="0">e ?</tspan></text><text class="cls-40" transform="translate(55.06 1317.44)">ARMANDO MAN<tspan class="cls-41" x="515.11" y="0">Z</tspan><tspan x="554.4" y="0">OLI</tspan></text><text class="cls-42" transform="translate(301.48 1224.94)"><tspan class="cls-43">V</tspan><tspan x="23.1" y="0">olume 1</tspan></text></svg>